<svg width="176" height="128" viewBox="0 0 176 128" fill="none" xmlns="http://www.w3.org/2000/svg">
<g clip-path="url(#clip0_2245_19542)">
<path d="M78.4101 70.1295H66.6818L64.8307 76.0403H52.7627L53.4392 74.3539H61.6524L63.421 68.4457H77.8749L78.4101 70.1295ZM77.9458 40.2313H80.0052L94.3783 76.0402H82.0163L81.4807 74.3539H91.3664L77.9458 40.2313ZM72.8957 51.1693L69.7844 60.7045H65.975L71.2564 44.9291L72.8957 51.1693Z" fill="#FFE100"/>
<path d="M97.498 53.9028V37.7275H99.6409V44.3711H108.047V37.7275H110.189V53.9028H108.047V46.2801H99.6409V53.9028H97.498ZM112.758 48.043C112.758 45.8737 113.36 44.2656 114.569 43.2225C115.575 42.3561 116.803 41.9191 118.253 41.9191C119.865 41.9191 121.183 42.4465 122.203 43.5048C123.228 44.5591 123.736 46.0168 123.736 47.877C123.736 49.3875 123.51 50.5737 123.058 51.4361C122.606 52.3024 121.947 52.9725 121.085 53.4511C120.219 53.9292 119.277 54.1665 118.253 54.1665C116.614 54.1665 115.289 53.643 114.276 52.5886C113.263 51.5377 112.758 50.0238 112.758 48.043ZM114.799 48.043C114.799 49.5457 115.127 50.6675 115.782 51.4136C116.437 52.1628 117.262 52.5359 118.253 52.5359C119.24 52.5359 120.061 52.1593 120.716 51.4097C121.367 50.6601 121.695 49.5154 121.695 47.979C121.695 46.5287 121.367 45.4293 120.708 44.6836C120.049 43.9379 119.232 43.5648 118.253 43.5648C117.262 43.5648 116.437 43.9379 115.782 44.6797C115.127 45.4216 114.799 46.5438 114.799 48.043ZM125.273 50.4042L127.235 50.0956C127.344 50.8823 127.653 51.485 128.157 51.9069C128.658 52.3249 129.363 52.5359 130.271 52.5359C131.181 52.5359 131.86 52.3474 132.3 51.9782C132.741 51.6056 132.963 51.1685 132.963 50.6718C132.963 50.2196 132.767 49.8695 132.375 49.6096C132.104 49.4324 131.426 49.2102 130.346 48.9392C128.892 48.57 127.879 48.254 127.318 47.9825C126.756 47.7153 126.327 47.3422 126.037 46.868C125.747 46.3934 125.6 45.8698 125.6 45.2975C125.6 44.774 125.721 44.292 125.962 43.8476C126.199 43.3993 126.527 43.0301 126.937 42.7365C127.246 42.5105 127.668 42.3146 128.199 42.1564C128.734 41.9982 129.306 41.9191 129.916 41.9191C130.835 41.9191 131.641 42.0548 132.338 42.3185C133.035 42.5822 133.547 42.9397 133.878 43.3915C134.21 43.8476 134.436 44.4502 134.56 45.2067L132.62 45.4743C132.53 44.8717 132.274 44.4009 131.852 44.062C131.43 43.7231 130.831 43.5536 130.06 43.5536C129.148 43.5536 128.496 43.704 128.109 44.0053C127.717 44.3071 127.521 44.6611 127.521 45.064C127.521 45.3239 127.604 45.5534 127.766 45.7605C127.927 45.9753 128.18 46.1487 128.527 46.2918C128.726 46.3631 129.31 46.5326 130.281 46.7963C131.686 47.1728 132.665 47.478 133.219 47.7188C133.776 47.9561 134.213 48.3063 134.53 48.7619C134.846 49.218 135.004 49.783 135.004 50.4608C135.004 51.1236 134.808 51.7448 134.424 52.3323C134.036 52.9163 133.479 53.368 132.752 53.6884C132.025 54.0083 131.2 54.1665 130.281 54.1665C128.756 54.1665 127.596 53.8501 126.798 53.2176C125.999 52.5847 125.491 51.6471 125.273 50.4042ZM137.365 58.3918V42.1867H139.173V43.7079C139.599 43.1131 140.081 42.6648 140.619 42.3674C141.154 42.07 141.806 41.9191 142.57 41.9191C143.572 41.9191 144.453 42.1793 145.218 42.6912C145.986 43.2073 146.562 43.934 146.95 44.8717C147.342 45.8093 147.537 46.8378 147.537 47.9561C147.537 49.154 147.323 50.2348 146.89 51.1953C146.461 52.1555 145.835 52.8899 145.014 53.4022C144.193 53.9102 143.331 54.1665 142.427 54.1665C141.764 54.1665 141.173 54.0273 140.646 53.7485C140.118 53.4697 139.689 53.1156 139.35 52.6902V58.3918L137.365 58.3918ZM139.162 48.1105C139.162 49.617 139.467 50.7319 140.077 51.4547C140.687 52.1745 141.429 52.5359 142.295 52.5359C143.176 52.5359 143.934 52.1628 144.562 51.4136C145.191 50.6675 145.508 49.5115 145.508 47.9449C145.508 46.45 145.199 45.3351 144.585 44.5894C143.971 43.8476 143.237 43.4745 142.386 43.4745C141.538 43.4745 140.789 43.8701 140.137 44.6612C139.486 45.4518 139.162 46.6043 139.162 48.1105ZM149.941 40.0135V37.7275H151.929V40.0135H149.941ZM149.941 53.9028V42.1867H151.929V53.9028H149.941ZM159.288 52.1252L159.574 53.8804C159.017 53.9971 158.516 54.0572 158.075 54.0572C157.352 54.0572 156.795 53.9443 156.396 53.7148C156 53.4887 155.722 53.1874 155.56 52.8147C155.397 52.4451 155.314 51.6622 155.314 50.4721V43.7309H153.857V42.1867H155.314V39.283L157.292 38.0928V42.1867H159.288V43.7309H157.292V50.5811C157.292 51.15 157.326 51.5114 157.393 51.6735C157.465 51.8356 157.578 51.9635 157.736 52.0612C157.894 52.1555 158.12 52.2043 158.414 52.2043C158.637 52.2043 158.926 52.178 159.288 52.1252ZM168.876 52.4568C168.138 53.0819 167.43 53.5224 166.753 53.7822C166.07 54.0386 165.34 54.1665 164.56 54.1665C163.273 54.1665 162.286 53.854 161.593 53.225C160.904 52.596 160.557 51.7902 160.557 50.8145C160.557 50.2382 160.685 49.7147 160.949 49.2405C161.209 48.7658 161.551 48.3854 161.973 48.0992C162.399 47.8131 162.873 47.5947 163.404 47.4478C163.792 47.3462 164.38 47.2446 165.167 47.1503C166.771 46.958 167.953 46.7323 168.711 46.4647C168.718 46.1937 168.722 46.0203 168.722 45.949C168.722 45.1393 168.534 44.5665 168.157 44.2393C167.652 43.7871 166.895 43.5649 165.897 43.5649C164.963 43.5649 164.274 43.727 163.826 44.0547C163.382 44.3823 163.054 44.9621 162.839 45.7947L160.9 45.5271C161.077 44.6988 161.367 44.0244 161.77 43.516C162.173 43.0037 162.76 42.6086 163.525 42.3337C164.289 42.0587 165.174 41.9191 166.184 41.9191C167.185 41.9191 167.995 42.0397 168.621 42.2732C169.246 42.5105 169.705 42.8045 170.003 43.162C170.296 43.5199 170.5 43.9678 170.62 44.5142C170.684 44.8531 170.718 45.4631 170.718 46.3441V48.9919C170.718 50.8409 170.76 52.0085 170.846 52.4944C170.929 52.9838 171.098 53.4545 171.347 53.9028H169.272C169.068 53.4926 168.933 53.0101 168.876 52.4568ZM168.711 48.0201C167.988 48.318 166.907 48.5666 165.468 48.7736C164.651 48.8903 164.071 49.0222 163.736 49.1692C163.397 49.3157 163.133 49.5306 162.952 49.8168C162.768 50.099 162.674 50.4116 162.674 50.7583C162.674 51.2892 162.877 51.7297 163.276 52.0837C163.675 52.4339 164.263 52.6111 165.035 52.6111C165.799 52.6111 166.481 52.4451 167.076 52.1105C167.671 51.7751 168.112 51.3155 168.391 50.7358C168.605 50.2875 168.711 49.6244 168.711 48.7507V48.0201ZM173.754 53.9028V37.7276H175.738V53.9028H173.754Z" fill="#1F1A17"/>
<path d="M14.7734 89.9637V83.3236H18.2379C19.0195 83.3236 19.6169 83.356 20.0293 83.4196C20.6051 83.506 21.0971 83.6651 21.5047 83.8942C22.0339 84.1908 22.432 84.5682 22.6944 85.0286C22.959 85.4894 23.0904 86.0151 23.0904 86.6073C23.0904 87.1114 23.0009 87.558 22.8211 87.9475C22.643 88.3374 22.416 88.6603 22.1346 88.9154C21.8562 89.1704 21.5514 89.3715 21.219 89.5167C20.8887 89.6637 20.4884 89.7748 20.0198 89.8509C19.549 89.9265 19.0104 89.9637 18.4039 89.9637L14.7734 89.9637ZM16.1036 89.1799H18.2513C18.9144 89.1799 19.4366 89.1397 19.8136 89.0576C20.1906 88.9755 20.4901 88.8613 20.7154 88.7126C21.0314 88.506 21.2774 88.2246 21.4533 87.8735C21.6288 87.5212 21.7179 87.0958 21.7179 86.5935C21.7179 85.8992 21.5445 85.3658 21.2 84.9931C20.8533 84.6192 20.4344 84.3702 19.9403 84.2435C19.5841 84.1523 19.0082 84.1074 18.2189 84.1074H16.1036L16.1036 89.1799ZM32.2888 88.4148L33.565 88.5181C33.3635 89.0114 32.9913 89.3931 32.4479 89.665C31.9019 89.9356 31.2068 90.0718 30.3612 90.0718C29.2952 90.0718 28.4496 89.8552 27.8267 89.4225C27.2016 88.9897 26.8903 88.3819 26.8903 87.5999C26.8903 86.7898 27.2063 86.1621 27.8362 85.7151C28.4686 85.2685 29.2861 85.0442 30.2929 85.0442C31.2673 85.0442 32.0636 85.2638 32.6796 85.7012C33.2978 86.1387 33.6073 86.7556 33.6073 87.5489C33.6073 87.5982 33.6048 87.6708 33.6 87.7668H28.1665C28.2114 88.2955 28.4384 88.7005 28.846 88.9802C29.2533 89.2616 29.759 89.4021 30.3677 89.4021C30.8199 89.4021 31.2068 89.3235 31.5276 89.1657C31.8483 89.0096 32.1012 88.7593 32.2888 88.4148ZM28.2343 87.0958H32.3027C32.2486 86.6921 32.0917 86.3877 31.8367 86.1867C31.4433 85.8729 30.9323 85.7151 30.3072 85.7151C29.7404 85.7151 29.2628 85.8405 28.8759 86.0907C28.4898 86.3415 28.2767 86.6769 28.2343 87.0958ZM42.431 89.9637V89.2569C41.8616 89.8012 41.0913 90.0718 40.1173 90.0718C39.6889 90.0718 39.2856 90.0177 38.9134 89.9097C38.5407 89.8012 38.2645 89.6637 38.0842 89.4999C37.9013 89.3343 37.7751 89.1333 37.7025 88.8951C37.6536 88.7347 37.6277 88.4809 37.6277 88.1334V85.154H38.8615V87.8208C38.8615 88.2475 38.8874 88.5337 38.9367 88.6819C39.0162 88.8968 39.1801 89.0637 39.4308 89.1873C39.6841 89.3096 39.9954 89.3697 40.3654 89.3697C40.7355 89.3697 41.0822 89.3083 41.4077 89.183C41.7332 89.0576 41.9623 88.886 42.0959 88.6711C42.2321 88.4545 42.3 88.1407 42.3 87.7313V85.154H43.5342V89.9637H42.431ZM50.7047 89.234L50.8824 89.9542C50.5361 90.0022 50.2244 90.0268 49.9504 90.0268C49.5008 90.0268 49.1541 89.9806 48.9059 89.8863C48.6599 89.7938 48.4866 89.6697 48.3859 89.5167C48.2851 89.3654 48.2337 89.0438 48.2337 88.5553V85.7877H47.3272V85.154H48.2337V83.9621L49.4636 83.4736V85.154H50.7047V85.7877H49.4636V88.5998C49.4636 88.8337 49.4843 88.982 49.5267 89.0485C49.5712 89.1151 49.6413 89.1674 49.7398 89.2076C49.838 89.2461 49.9785 89.2664 50.1613 89.2664C50.2992 89.2664 50.4799 89.2556 50.7047 89.234ZM53.9564 88.5276L55.1768 88.4005C55.2447 88.7239 55.4371 88.9711 55.7509 89.1441C56.0622 89.3157 56.5005 89.4021 57.0647 89.4021C57.6314 89.4021 58.0529 89.3252 58.327 89.1735C58.6011 89.0204 58.7394 88.841 58.7394 88.637C58.7394 88.4515 58.6175 88.3076 58.3737 88.2012C58.2051 88.1286 57.7836 88.0374 57.1114 87.9259C56.2074 87.7746 55.5771 87.6449 55.2283 87.5333C54.8794 87.4235 54.6127 87.2705 54.4324 87.0755C54.2521 86.881 54.1605 86.6661 54.1605 86.431C54.1605 86.2161 54.2357 86.0181 54.3853 85.8357C54.5327 85.652 54.7367 85.5002 54.9922 85.3796C55.1842 85.2871 55.4466 85.2067 55.7764 85.1414C56.1089 85.0766 56.4651 85.0442 56.8442 85.0442C57.4157 85.0442 57.9172 85.0999 58.3507 85.208C58.7835 85.3165 59.1021 85.4635 59.3087 85.6485C59.5141 85.8357 59.655 86.083 59.7324 86.3938L58.5263 86.5036C58.4696 86.2563 58.3105 86.0631 58.0481 85.9239C57.7857 85.7847 57.4135 85.7151 56.9337 85.7151C56.3669 85.7151 55.9619 85.7769 55.7202 85.9005C55.4768 86.0242 55.3549 86.1694 55.3549 86.335C55.3549 86.4418 55.4064 86.536 55.5071 86.6212C55.6078 86.7094 55.7652 86.7803 55.9805 86.8391C56.1045 86.8685 56.4672 86.9381 57.0716 87.0466C57.9453 87.2009 58.5544 87.3263 58.8985 87.4248C59.2452 87.5225 59.5171 87.6665 59.7134 87.8532C59.9105 88.0404 60.0086 88.2721 60.0086 88.5505C60.0086 88.8229 59.8867 89.0775 59.6481 89.3192C59.4064 89.5587 59.0601 89.7441 58.608 89.8755C58.1562 90.0069 57.6431 90.0718 57.0716 90.0718C56.1231 90.0718 55.4016 89.9421 54.9049 89.6823C54.4086 89.4225 54.0926 89.0377 53.9564 88.5276ZM68.7691 88.2012L69.9822 88.3063C69.8507 88.8583 69.5114 89.2911 68.9637 89.6036C68.4177 89.9157 67.7454 90.0718 66.9492 90.0718C65.954 90.0718 65.1504 89.8569 64.5464 89.4272C63.9399 88.9971 63.6352 88.3806 63.6352 87.5766C63.6352 87.0574 63.7661 86.6026 64.0264 86.2131C64.2884 85.8236 64.6843 85.5314 65.2182 85.3364C65.7504 85.1414 66.331 85.0442 66.9565 85.0442C67.748 85.0442 68.3965 85.1773 68.8975 85.4414C69.4016 85.706 69.7249 86.0799 69.8672 86.5671L68.6658 86.6891C68.5513 86.3661 68.3498 86.1232 68.0593 85.9593C67.7692 85.7972 67.4178 85.7151 67.0054 85.7151C66.3824 85.7151 65.8762 85.8621 65.4876 86.1573C65.0989 86.4509 64.9048 86.9164 64.9048 87.5532C64.9048 88.1995 65.092 88.6694 65.469 88.9634C65.8438 89.2556 66.3331 89.4021 66.9375 89.4021C67.4225 89.4021 67.825 89.3036 68.1505 89.1073C68.476 88.9106 68.6822 88.6093 68.7691 88.2012ZM73.5784 89.9637V83.3236H74.8126V85.706C75.3889 85.2651 76.1169 85.0442 76.9953 85.0442C77.534 85.0442 78.0026 85.1155 78.4007 85.256C78.7989 85.3952 79.0846 85.5902 79.2554 85.8374C79.4261 86.0847 79.513 86.4448 79.513 86.9147V89.9637H78.2766V86.9147C78.2766 86.5084 78.1431 86.2114 77.8763 86.0259C77.6087 85.8405 77.2296 85.7462 76.7398 85.7462C76.375 85.7462 76.0304 85.8093 75.7075 85.9347C75.3842 86.0601 75.1546 86.23 75.0189 86.4448C74.8805 86.6584 74.8126 86.9554 74.8126 87.3323V89.9637L73.5784 89.9637ZM88.9181 88.4148L90.1942 88.5181C89.9928 89.0114 89.6206 89.3931 89.0772 89.665C88.5316 89.9356 87.8361 90.0718 86.9905 90.0718C85.9249 90.0718 85.0793 89.8552 84.4559 89.4225C83.8308 88.9897 83.5196 88.3819 83.5196 87.5999C83.5196 86.7898 83.8356 86.1621 84.4654 85.7151C85.0979 85.2685 85.9154 85.0442 86.9222 85.0442C87.8966 85.0442 88.6933 85.2638 89.3089 85.7012C89.9271 86.1387 90.2362 86.7556 90.2362 87.5489C90.2362 87.5982 90.234 87.6708 90.2293 87.7668H84.7957C84.8407 88.2955 85.0676 88.7005 85.4753 88.9802C85.8825 89.2617 86.3883 89.4021 86.997 89.4021C87.4492 89.4021 87.8361 89.3235 88.1568 89.1657C88.4776 89.0096 88.7309 88.7593 88.9181 88.4148ZM84.864 87.0958H88.9319C88.8779 86.6921 88.721 86.3877 88.4659 86.1867C88.0725 85.8729 87.562 85.7151 86.9364 85.7151C86.3697 85.7151 85.892 85.8405 85.5051 86.0907C85.1191 86.3415 84.9059 86.6769 84.864 87.0958ZM93.7905 88.5276L95.0109 88.4005C95.0788 88.7239 95.2707 88.9712 95.5846 89.1441C95.8963 89.3157 96.3342 89.4021 96.8988 89.4021C97.4655 89.4021 97.887 89.3252 98.1611 89.1735C98.4352 89.0204 98.5735 88.841 98.5735 88.637C98.5735 88.4515 98.4516 88.3076 98.2078 88.2012C98.0392 88.1286 97.6172 88.0374 96.9454 87.9259C96.0415 87.7746 95.4112 87.6449 95.0624 87.5333C94.7135 87.4235 94.4463 87.2705 94.2665 87.0755C94.0858 86.881 93.9946 86.6661 93.9946 86.431C93.9946 86.2161 94.0694 86.0181 94.2194 85.8357C94.3668 85.652 94.5708 85.5002 94.8259 85.3796C95.0183 85.2871 95.2802 85.2067 95.6105 85.1414C95.9429 85.0766 96.2992 85.0442 96.6783 85.0442C97.2498 85.0442 97.7513 85.0999 98.1844 85.208C98.6176 85.3165 98.9362 85.4635 99.1424 85.6485C99.3482 85.8357 99.4891 86.083 99.5665 86.3938L98.3604 86.5036C98.3037 86.2563 98.1446 86.0631 97.8822 85.9239C97.6198 85.7847 97.2476 85.7151 96.7673 85.7151C96.201 85.7151 95.7955 85.7769 95.5543 85.9006C95.3109 86.0242 95.189 86.1694 95.189 86.335C95.189 86.4418 95.2405 86.536 95.3412 86.6212C95.4419 86.7094 95.5988 86.7803 95.8141 86.8391C95.9382 86.8685 96.3013 86.9381 96.9057 87.0466C97.7794 87.2009 98.388 87.3263 98.7326 87.4248C99.0793 87.5225 99.3507 87.6665 99.5474 87.8532C99.7446 88.0404 99.8427 88.2721 99.8427 88.5505C99.8427 88.8229 99.7208 89.0775 99.4817 89.3192C99.2405 89.5587 98.8938 89.7441 98.4421 89.8755C97.9899 90.0069 97.4772 90.0718 96.9057 90.0718C95.9572 90.0718 95.2357 89.9421 94.739 89.6823C94.2427 89.4225 93.9267 89.0377 93.7905 88.5276ZM109.316 89.9637V83.3236H110.649V86.051H115.876V83.3236H117.209V89.9637H115.876V86.8343H110.649V89.9637H109.316ZM121.344 87.558C121.344 86.6674 121.719 86.0073 122.47 85.5793C123.096 85.2236 123.859 85.0442 124.761 85.0442C125.763 85.0442 126.583 85.2607 127.218 85.6952C127.855 86.1279 128.171 86.7262 128.171 87.4901C128.171 88.11 128.03 88.5968 127.749 88.9508C127.469 89.3066 127.058 89.5816 126.522 89.7778C125.983 89.9745 125.398 90.0718 124.761 90.0718C123.742 90.0718 122.918 89.8569 122.288 89.4242C121.658 88.9928 121.344 88.3711 121.344 87.558ZM122.613 87.558C122.613 88.1749 122.817 88.6357 123.224 88.9418C123.632 89.2496 124.145 89.4021 124.761 89.4021C125.375 89.4021 125.885 89.2478 126.292 88.94C126.698 88.6327 126.901 88.1623 126.901 87.532C126.901 86.9363 126.698 86.485 126.288 86.1789C125.878 85.8729 125.37 85.7198 124.761 85.7198C124.145 85.7198 123.632 85.8729 123.224 86.1776C122.817 86.482 122.613 86.9428 122.613 87.558ZM131.664 88.5276L132.884 88.4005C132.952 88.7239 133.145 88.9711 133.459 89.1441C133.77 89.3157 134.208 89.4021 134.772 89.4021C135.339 89.4021 135.761 89.3252 136.035 89.1735C136.309 89.0204 136.447 88.841 136.447 88.637C136.447 88.4515 136.325 88.3076 136.081 88.2012C135.913 88.1286 135.491 88.0374 134.819 87.9259C133.915 87.7745 133.285 87.6449 132.936 87.5333C132.587 87.4235 132.32 87.2705 132.14 87.0755C131.959 86.881 131.868 86.6661 131.868 86.431C131.868 86.2161 131.943 86.0181 132.093 85.8357C132.24 85.652 132.444 85.5002 132.699 85.3796C132.892 85.2871 133.154 85.2067 133.484 85.1414C133.817 85.0766 134.173 85.0442 134.552 85.0442C135.123 85.0442 135.625 85.0999 136.058 85.208C136.491 85.3165 136.81 85.4635 137.016 85.6485C137.222 85.8357 137.363 86.083 137.44 86.3938L136.234 86.5036C136.177 86.2563 136.018 86.0631 135.756 85.9239C135.494 85.7847 135.121 85.7151 134.641 85.7151C134.075 85.7151 133.669 85.7769 133.428 85.9005C133.185 86.0242 133.063 86.1694 133.063 86.335C133.063 86.4418 133.114 86.536 133.215 86.6212C133.315 86.7094 133.472 86.7803 133.688 86.8391C133.812 86.8685 134.175 86.9381 134.779 87.0466C135.653 87.2009 136.262 87.3263 136.606 87.4248C136.953 87.5225 137.224 87.6665 137.421 87.8532C137.618 88.0404 137.716 88.2721 137.716 88.5505C137.716 88.8229 137.594 89.0775 137.355 89.3192C137.115 89.5587 136.768 89.7441 136.316 89.8755C135.863 90.0069 135.351 90.0718 134.779 90.0718C133.831 90.0718 133.109 89.9421 132.613 89.6823C132.116 89.4225 131.8 89.0377 131.664 88.5276ZM141.722 91.8066V85.154H142.846V85.7786C143.111 85.5344 143.411 85.3507 143.746 85.2283C144.078 85.106 144.483 85.0442 144.959 85.0442C145.582 85.0442 146.13 85.1509 146.605 85.3615C147.083 85.5729 147.441 85.8716 147.683 86.2563C147.926 86.6415 148.048 87.0634 148.048 87.5225C148.048 88.0141 147.915 88.458 147.645 88.8518C147.378 89.2461 146.989 89.5478 146.479 89.7579C145.968 89.9667 145.432 90.0718 144.87 90.0718C144.458 90.0718 144.09 90.0147 143.762 89.9002C143.434 89.7856 143.167 89.6404 142.957 89.4657V91.8066L141.722 91.8066ZM142.839 87.5856C142.839 88.2043 143.029 88.6621 143.408 88.9586C143.788 89.2539 144.249 89.4022 144.788 89.4022C145.336 89.4022 145.807 89.2496 146.198 88.9418C146.589 88.6357 146.786 88.161 146.786 87.5178C146.786 86.9039 146.594 86.4465 146.212 86.1405C145.83 85.8357 145.374 85.6827 144.844 85.6827C144.317 85.6827 143.851 85.8452 143.446 86.1694C143.04 86.4945 142.839 86.9675 142.839 87.5856ZM152.08 84.2621V83.3236H153.317V84.2621H152.08ZM152.08 89.9637V85.154H153.317V89.9637H152.08ZM160.431 89.234L160.609 89.9542C160.262 90.0022 159.951 90.0268 159.677 90.0268C159.227 90.0268 158.88 89.9806 158.632 89.8863C158.386 89.7938 158.213 89.6697 158.112 89.5167C158.011 89.3654 157.96 89.0438 157.96 88.5553V85.7877H157.053V85.154H157.96V83.9621L159.19 83.4736V85.154H160.431V85.7877H159.19V88.5998C159.19 88.8337 159.211 88.982 159.253 89.0485C159.297 89.1151 159.367 89.1674 159.466 89.2076C159.564 89.2461 159.705 89.2664 159.888 89.2664C160.026 89.2664 160.206 89.2556 160.431 89.234ZM168.932 89.3697C168.473 89.6265 168.032 89.8076 167.611 89.914C167.187 90.0195 166.733 90.0718 166.248 90.0718C165.446 90.0718 164.833 89.9434 164.402 89.6853C163.974 89.4272 163.758 89.0961 163.758 88.6958C163.758 88.4593 163.837 88.2445 164.002 88.0495C164.163 87.855 164.376 87.6989 164.639 87.5813C164.903 87.4637 165.198 87.3742 165.529 87.3137C165.77 87.2722 166.135 87.2303 166.624 87.1918C167.623 87.1127 168.358 87.0202 168.829 86.9104C168.833 86.7989 168.836 86.728 168.836 86.6986C168.836 86.3661 168.718 86.131 168.484 85.9965C168.17 85.8111 167.7 85.7198 167.079 85.7198C166.498 85.7198 166.069 85.7864 165.791 85.9209C165.514 86.0553 165.311 86.2935 165.178 86.635L163.971 86.5252C164.081 86.1854 164.261 85.9083 164.512 85.7C164.763 85.4894 165.128 85.3273 165.604 85.2145C166.079 85.1017 166.629 85.0442 167.257 85.0442C167.88 85.0442 168.383 85.0939 168.772 85.1894C169.161 85.2871 169.447 85.4077 169.632 85.5547C169.815 85.7013 169.941 85.8854 170.016 86.1093C170.056 86.2485 170.077 86.4988 170.077 86.8607V87.9475C170.077 88.7066 170.103 89.186 170.156 89.3853C170.208 89.5863 170.314 89.7796 170.468 89.9637H169.177C169.051 89.7951 168.967 89.5971 168.932 89.3697ZM168.829 87.5489C168.379 87.6708 167.706 87.7728 166.812 87.858C166.304 87.906 165.943 87.96 165.734 88.0205C165.524 88.0806 165.36 88.1688 165.248 88.286C165.133 88.4022 165.074 88.5306 165.074 88.6729C165.074 88.8907 165.201 89.0714 165.449 89.2171C165.697 89.3607 166.063 89.4333 166.543 89.4333C167.018 89.4333 167.442 89.3654 167.812 89.2279C168.182 89.09 168.456 88.9016 168.629 88.6634C168.763 88.4796 168.829 88.2073 168.829 87.8489V87.5489ZM174.502 89.9637V83.3236H175.736V89.9637H174.502Z" fill="#1F1A17"/>
<path d="M103.214 74.0418L109.222 57.8665H111.45L117.851 74.0418H115.492L113.668 69.1421H107.128L105.413 74.0418H103.214ZM107.725 67.3982H113.03L111.396 62.9205C110.901 61.5609 110.529 60.4421 110.289 59.565C110.089 60.6042 109.808 61.6322 109.444 62.6568L107.725 67.3982ZM119.217 74.0418V57.8665H121.136V74.0418H119.217ZM131.866 70.2682L133.851 70.5203C133.538 71.7216 132.959 72.6519 132.114 73.3146C131.266 73.9739 130.184 74.3055 128.87 74.3055C127.213 74.3055 125.898 73.7781 124.93 72.7237C123.958 71.6693 123.474 70.1891 123.474 68.2836C123.474 66.3101 123.965 64.7811 124.945 63.6926C125.928 62.6041 127.199 62.0581 128.764 62.0581C130.279 62.0581 131.516 62.5928 132.474 63.6584C133.435 64.7245 133.916 66.2271 133.916 68.1591C133.916 68.2797 133.913 68.4565 133.905 68.6899H125.458C125.527 69.9782 125.88 70.9651 126.514 71.6464C127.147 72.332 127.934 72.6744 128.88 72.6744C129.583 72.6744 130.184 72.4825 130.683 72.0986C131.182 71.7182 131.575 71.1077 131.866 70.2682ZM125.563 67.0558H131.888C131.804 66.0728 131.561 65.331 131.164 64.8412C130.552 64.0769 129.758 63.6925 128.786 63.6925C127.905 63.6925 127.162 63.9973 126.561 64.6077C125.961 65.2177 125.629 66.0352 125.563 67.0558ZM136.265 74.0418V62.3256H137.98V63.9675C138.337 63.3951 138.81 62.9317 139.4 62.5855C139.989 62.2353 140.663 62.058 141.417 62.058C142.254 62.058 142.942 62.2387 143.478 62.6006C144.017 62.962 144.395 63.463 144.614 64.1106C145.513 62.7437 146.678 62.058 148.113 62.058C149.238 62.058 150.101 62.3818 150.705 63.026C151.31 63.6701 151.612 64.6605 151.612 65.9976V74.0418H149.704V66.6603C149.704 65.8657 149.642 65.2934 149.518 64.9428C149.391 64.5965 149.165 64.3142 148.841 64.0993C148.514 63.8884 148.127 63.779 147.687 63.779C146.89 63.779 146.231 64.054 145.703 64.6038C145.178 65.1498 144.912 66.0274 144.912 67.2326V74.0418H142.993V66.4307C142.993 65.5454 142.837 64.8827 142.524 64.4421C142.211 64.0016 141.701 63.779 140.987 63.779C140.449 63.779 139.95 63.926 139.491 64.2234C139.032 64.5174 138.697 64.9466 138.493 65.5116C138.285 66.0801 138.183 66.8976 138.183 67.9632V74.0417L136.265 74.0418ZM161.855 72.5957C161.141 73.2208 160.456 73.6613 159.801 73.9211C159.142 74.1771 158.436 74.3055 157.682 74.3055C156.437 74.3055 155.483 73.9925 154.813 73.3639C154.146 72.7349 153.811 71.9291 153.811 70.9534C153.811 70.3772 153.935 69.8537 154.19 69.3794C154.441 68.9048 154.773 68.5243 155.18 68.2382C155.592 67.952 156.051 67.7337 156.564 67.5867C156.939 67.4851 157.507 67.3835 158.268 67.2893C159.819 67.0969 160.962 66.8712 161.695 66.6036C161.702 66.3326 161.706 66.1592 161.706 66.0879C161.706 65.2782 161.523 64.7054 161.159 64.3782C160.671 63.926 159.939 63.7038 158.975 63.7038C158.071 63.7038 157.405 63.8659 156.972 64.1936C156.542 64.5208 156.225 65.101 156.018 65.9336L154.143 65.666C154.314 64.8373 154.594 64.1633 154.984 63.6549C155.373 63.1427 155.942 62.7471 156.68 62.4726C157.42 62.1977 158.275 62.058 159.251 62.058C160.22 62.058 161.003 62.1786 161.607 62.4121C162.211 62.6494 162.656 62.9429 162.943 63.3009C163.227 63.6584 163.424 64.1067 163.541 64.6531C163.602 64.992 163.635 65.602 163.635 66.483V69.1308C163.635 70.9798 163.675 72.1474 163.759 72.6333C163.839 73.1227 164.003 73.5935 164.243 74.0417H162.237C162.04 73.6315 161.909 73.1491 161.855 72.5957ZM161.695 68.159C160.995 68.4565 159.95 68.705 158.559 68.9125C157.769 69.0293 157.208 69.1611 156.885 69.3077C156.557 69.4546 156.302 69.6691 156.127 69.9557C155.949 70.238 155.858 70.5505 155.858 70.8968C155.858 71.4281 156.054 71.8686 156.44 72.2226C156.826 72.5728 157.394 72.7501 158.141 72.7501C158.88 72.7501 159.539 72.5841 160.114 72.249C160.69 71.914 161.115 71.4545 161.385 70.8743C161.592 70.4265 161.695 69.7633 161.695 68.8896V68.159ZM157.959 60.8679L159.378 57.78H161.894L159.55 60.8679H157.959ZM166.613 74.0418V62.3256H168.34V63.99C169.173 62.7022 170.375 62.0581 171.944 62.0581C172.629 62.0581 173.255 62.186 173.827 62.4385C174.402 62.6944 174.828 63.026 175.112 63.4401C175.399 63.8508 175.596 64.3406 175.713 64.9052C175.782 65.2743 175.818 65.9185 175.818 66.8371V74.0418H173.896V66.9123C173.896 66.1065 173.823 65.5 173.674 65.0971C173.525 64.6981 173.259 64.3782 172.88 64.1409C172.498 63.8996 172.053 63.779 171.54 63.779C170.721 63.779 170.018 64.0505 169.421 64.5853C168.827 65.1235 168.532 66.1402 168.532 67.6429V74.0418L166.613 74.0418Z" fill="#1F1A17"/>
<path d="M18.5596 40.2042L27.8972 53.6137L29.8659 52.7357H40.1446V61.5316H38.9152V60.9826H26.7205V60.9822H38.7488V60.1154H26.7205V59.0399H18.5596L18.5596 40.2042ZM26.7205 63.6456H29.8659V76.0136H18.5596V74.3618H26.7205L26.7205 63.6456ZM50.5911 40.2042H53.5856V76.0136H42.2283V74.3618H50.5911L50.5911 40.2042Z" fill="#FFE100"/>
<path d="M12.2217 35.5769H23.528V37.2979H14.1817V49.8518H12.2217L12.2217 35.5769ZM14.1817 71.3863H12.2217V60.9333H14.1817V71.3863Z" fill="#DA251D"/>
<path fill-rule="evenodd" clip-rule="evenodd" d="M0.31543 47.9989H14.1814V49.8517H2.27549V58.9646H0.315455L0.31543 47.9989ZM25.4877 47.9989H35.7738V49.8517H25.4877V47.9989Z" fill="#DA251D"/>
<path d="M76.4054 67.844H62.9489L61.0973 73.7496H49.0293L63.3937 37.9735H76.2719L90.6449 73.7496H78.2833L76.4054 67.844ZM73.931 60.1059L69.7039 47.2446L65.5029 60.1059H73.931Z" fill="#1F1A17"/>
<path fill-rule="evenodd" clip-rule="evenodd" d="M26.7197 60.1154H38.7495V60.9921L26.7223 61.1832L26.7219 61.9833L38.7495 61.9786V63.6836H26.7197V60.1154Z" fill="#FFE100"/>
<path d="M14.8281 37.9468H26.1344V50.4778H38.497V37.9468H49.8543V73.7557H38.497V59.2738H26.1344V73.7557H14.8281V37.9468Z" fill="#1F1A17"/>
<path d="M41.0822 50.3683H2.92188V61.3339H41.0822V50.3683Z" fill="#1F1A17"/>
</g>
<defs>
<clipPath id="clip0_2245_19542">
<rect width="174.545" height="128" fill="white" transform="translate(0.818359)"/>
</clipPath>
</defs>
</svg>
