<svg width="176" height="128" viewBox="0 0 176 128" fill="none" xmlns="http://www.w3.org/2000/svg">
<g clip-path="url(#clip0_2245_19523)">
<path d="M43.498 33.0267H54.3453V45.3468H66.2061V33.0267H76.6674C70.8875 36.6575 67.043 43.1001 67.043 50.4415C67.043 57.9664 71.0814 64.545 77.1026 68.1211V68.2312H66.2061V53.9938H54.3453V68.2312H43.498V33.0267ZM98.3793 33.0267H120.999C124.383 33.0267 126.981 33.8735 128.789 35.5519C130.601 37.2336 131.511 39.3138 131.511 41.7891C131.511 43.8711 130.865 45.658 129.574 47.1495C128.707 48.1413 127.448 48.9285 125.789 49.502C128.307 50.1084 130.162 51.1578 131.356 52.6335C132.541 54.1171 133.138 55.9771 133.138 58.2151C133.138 60.0431 132.713 61.6822 131.871 63.141C131.021 64.6004 129.868 65.7475 128.396 66.6002C127.489 67.1248 126.115 67.5088 124.277 67.7477C121.833 68.0657 120.214 68.2312 119.413 68.2312H97.7581C103.882 64.6803 108.005 58.0436 108.005 50.4415C108.005 43.1001 104.159 36.6575 98.3793 33.0267ZM111.631 46.8382H116.347C118.04 46.8382 119.217 46.5432 119.887 45.961C120.549 45.3712 120.876 44.5268 120.876 43.4283C120.876 42.4041 120.549 41.6007 119.887 41.0264C119.217 40.445 118.064 40.1582 116.421 40.1582H111.631V46.8382ZM111.631 60.666H117.165C119.037 60.666 120.353 60.3377 121.113 59.6738C121.881 59.0102 122.266 58.1167 122.266 56.9938C122.266 55.9526 121.89 55.1172 121.129 54.4856C120.37 53.8544 119.045 53.5349 117.14 53.5349H111.631V60.666Z" fill="#004890"/>
<path d="M93.4892 33.0955H81.5586V67.7884H93.4892V33.0955Z" fill="#EC0928"/>
<path d="M70.2246 44.4607L70.2246 56.4237L104.823 56.4237L104.823 44.4607L70.2246 44.4607Z" fill="#EC0928"/>
<path d="M7.56504 76.8274V81.8591H11.5726V76.8274H15.0049V90.0054H11.5726V84.4988H7.56504V90.0054H4.13281V76.8274H7.56504ZM22.4075 82.3147C21.8017 82.3147 21.3037 82.5653 20.9144 83.065C20.5243 83.565 20.33 84.2456 20.33 85.1063C20.33 85.9669 20.5277 86.6441 20.9234 87.1377C21.3195 87.6318 21.8141 87.8786 22.4075 87.8786C23.0264 87.8786 23.527 87.6348 23.9103 87.1475C24.294 86.6599 24.4861 85.9798 24.4861 85.1063C24.4861 84.2332 24.294 83.5492 23.9103 83.0556C23.527 82.5619 23.0264 82.3147 22.4075 82.3147ZM22.4075 79.9791C23.2733 79.9791 24.0468 80.0963 24.727 80.3307C25.4075 80.5647 25.9822 80.9035 26.4523 81.3463C26.922 81.7898 27.2809 82.3305 27.5286 82.97C27.7759 83.6091 27.8991 84.3277 27.8991 85.1255C27.8991 85.9229 27.7759 86.6415 27.5286 87.2806C27.2809 87.9197 26.922 88.4578 26.4523 88.8945C25.9822 89.3313 25.4075 89.6666 24.727 89.901C24.0468 90.135 23.2733 90.2522 22.4075 90.2522C20.6761 90.2522 19.3311 89.8027 18.3728 88.9039C17.4134 88.0052 16.9346 86.7458 16.9346 85.1255C16.9346 84.3277 17.0583 83.6091 17.3056 82.97C17.5532 82.3306 17.9121 81.7898 18.3819 81.3463C18.8516 80.9035 19.4236 80.5647 20.0982 80.3307C20.772 80.0963 21.542 79.9791 22.4075 79.9791ZM36.4897 82.8468C35.587 82.3275 34.7211 82.0683 33.8921 82.0683C33.4844 82.0683 33.1747 82.144 32.965 82.2963C32.7542 82.4477 32.6489 82.6505 32.6489 82.9037C32.6489 83.0684 32.6955 83.198 32.7887 83.293C32.8812 83.3875 33.0139 83.4701 33.1878 83.5398C33.3607 83.6091 33.5678 83.6792 33.8091 83.7485C34.0503 83.8179 34.325 83.8974 34.6339 83.986C35.1045 84.1254 35.5096 84.2803 35.8501 84.4513C36.1902 84.622 36.4713 84.8214 36.6937 85.0494C36.9166 85.277 37.0831 85.546 37.1947 85.8561C37.3059 86.1667 37.3615 86.5303 37.3615 86.9482C37.3615 87.9735 36.9786 88.7837 36.2116 89.3787C35.4449 89.9738 34.3558 90.2711 32.9462 90.2711C31.7711 90.2711 30.6331 90.0876 29.5324 89.7205L29.7368 87.2139C30.6639 87.7075 31.635 87.9543 32.649 87.9543C33.6264 87.9543 34.115 87.6887 34.115 87.157C34.115 86.9798 34.0688 86.837 33.9756 86.73C33.8831 86.6222 33.7504 86.5273 33.5768 86.4451C33.4036 86.3626 33.1901 86.2835 32.9368 86.2077C32.6835 86.1316 32.3957 86.0431 32.0744 85.9417C31.629 85.7898 31.2397 85.6319 30.9052 85.4673C30.5715 85.3026 30.293 85.1157 30.0706 84.9069C29.8477 84.6978 29.6812 84.4543 29.5696 84.1759C29.4584 83.8974 29.4024 83.5745 29.4024 83.2074C29.4024 82.2069 29.7857 81.419 30.5527 80.8432C31.3197 80.2674 32.4325 79.9791 33.8921 79.9791C34.8328 79.9791 35.8031 80.1502 36.805 80.492L36.4897 82.8468ZM42.3898 93.9738H39.1244V80.2452H42.0557V82.1059C42.427 81.4224 42.9062 80.8974 43.4939 80.53C44.0809 80.163 44.7458 79.9791 45.488 79.9791C46.1193 79.9791 46.6973 80.0963 47.2227 80.3307C47.7484 80.5647 48.2002 80.9035 48.5771 81.3463C48.9544 81.7898 49.2479 82.3245 49.4587 82.9512C49.6684 83.5775 49.7737 84.2832 49.7737 85.0682C49.7737 85.8531 49.6662 86.5653 49.449 87.2044C49.2325 87.8439 48.9356 88.3911 48.5587 88.8466C48.1814 89.3026 47.733 89.6538 47.2137 89.901C46.6939 90.1475 46.1313 90.2711 45.5248 90.2711C44.2016 90.2711 43.1565 89.7265 42.3898 88.6383L42.3898 93.9738ZM44.4304 82.4858C43.7995 82.4858 43.3019 82.7168 42.937 83.1788C42.5721 83.6408 42.3898 84.2901 42.3898 85.1255C42.3898 85.9481 42.5721 86.5872 42.937 87.0432C43.3019 87.4987 43.781 87.7267 44.3752 87.7267C44.981 87.7267 45.4695 87.4927 45.8405 87.0239C46.2118 86.5555 46.3974 85.8912 46.3974 85.0305C46.3974 84.2456 46.2178 83.6249 45.8593 83.1694C45.5004 82.7138 45.0242 82.4858 44.4304 82.4858ZM55.0804 80.2452V90.0054H51.8146V80.2452H55.0804ZM55.0804 75.7639V78.4794H51.8146V75.7639H55.0804ZM61.7408 80.2452H64.0787V82.6565H61.7408V86.0178C61.7408 86.739 61.8524 87.2489 62.0749 87.5462C62.2977 87.8439 62.6935 87.9924 63.2617 87.9924C63.3609 87.9924 63.4759 87.9799 63.6052 87.9543C63.7356 87.9291 63.893 87.8914 64.0787 87.8405L64.1343 90.0242C63.4413 90.1885 62.7795 90.2711 62.1489 90.2711C61.4935 90.2711 60.934 90.1885 60.4702 90.0242C60.0061 89.8596 59.6258 89.6097 59.3289 89.2743C59.032 88.9386 58.8155 88.5083 58.6795 87.9833C58.5435 87.4577 58.4754 86.8344 58.4754 86.1124V82.6565H56.6389V80.2452H58.6611V77.9853L61.7408 76.9223V80.2452ZM71.1476 85.5618C70.2194 85.5618 69.5361 85.6632 69.0972 85.8659C68.6583 86.0683 68.4388 86.4165 68.4388 86.9101C68.4388 87.2395 68.5504 87.5116 68.7725 87.7267C68.9954 87.9419 69.2979 88.0493 69.6816 88.0493C70.263 88.0493 70.7451 87.8533 71.1288 87.4611C71.5125 87.0684 71.7042 86.5303 71.7042 85.8467V85.5619L71.1476 85.5618ZM74.7839 90.0054L71.9451 90.002L71.871 88.4864C71.4757 89.0686 71.0018 89.4865 70.4516 89.7398C69.9014 89.993 69.249 90.1192 68.4944 90.1192C67.5169 90.1192 66.7443 89.8377 66.1749 89.2744C65.606 88.711 65.3219 87.9607 65.3219 87.0239C65.3219 85.9229 65.7394 85.1157 66.5741 84.6032C67.4091 84.0903 68.6925 83.8341 70.4238 83.8341H71.7042V83.7011C71.7042 83.1694 71.5061 82.7609 71.11 82.476C70.7147 82.1915 70.1333 82.0491 69.3663 82.0491C68.5993 82.0491 67.6597 82.3147 66.5466 82.8468L66.4906 80.6442C67.0476 80.4035 67.6346 80.2294 68.2531 80.122C68.8717 80.0142 69.5395 79.9607 70.2569 79.9607C71.8402 79.9607 72.9906 80.3594 73.708 81.1567C74.425 81.9545 74.7839 83.201 74.7839 84.8975V90.0054ZM80.3872 75.7639V90.0054H77.1214V75.7639H80.3872ZM91.9643 87.5748H93.3187C94.7411 87.5748 95.4521 87.0492 95.4521 85.9986C95.4521 84.986 94.7907 84.4796 93.4671 84.4796H91.9643V87.5748ZM91.9643 82.144H93.003C94.4502 82.144 95.174 81.6379 95.174 80.625C95.174 79.6758 94.5058 79.201 93.1698 79.201H91.9643V82.144ZM93.8752 76.8273C97.0046 76.8273 98.5691 77.9665 98.5691 80.2451C98.5691 81.7898 97.7648 82.7835 96.1571 83.2262C97.0478 83.4033 97.728 83.761 98.1981 84.2991C98.6683 84.8372 98.9028 85.5241 98.9028 86.3596C98.9028 87.6257 98.4668 88.5497 97.5953 89.1315C96.7227 89.7141 95.3961 90.0054 93.6152 90.0054H88.6061V76.8273L93.8752 76.8273ZM107.567 82.9798C107.406 82.9161 107.243 82.872 107.076 82.8468C106.909 82.8212 106.732 82.8087 106.547 82.8087C104.976 82.8087 104.191 83.8213 104.191 85.8467V90.0054H100.926V80.2452H103.838V82.1059C104.494 80.6883 105.465 79.9791 106.751 79.9791C106.887 79.9791 107.039 79.9919 107.206 80.0176C107.373 80.0428 107.549 80.0677 107.734 80.0933L107.567 82.9798ZM112.298 80.2452V90.0054H109.033V80.2452H112.298ZM112.298 75.7639V78.4793H109.033V75.7639H112.298ZM118.959 80.2452H121.297V82.6565H118.959V86.0178C118.959 86.739 119.07 87.2489 119.293 87.5462C119.516 87.8439 119.911 87.9924 120.48 87.9924C120.579 87.9924 120.694 87.9799 120.824 87.9543C120.954 87.929 121.111 87.8914 121.297 87.8405L121.353 90.0242C120.66 90.1885 119.998 90.271 119.367 90.271C118.711 90.271 118.152 90.1885 117.688 90.0242C117.224 89.8595 116.844 89.6097 116.547 89.2743C116.25 88.9386 116.034 88.5082 115.898 87.9833C115.762 87.4576 115.694 86.8344 115.694 86.1124V82.6565H113.857V80.2451H115.879V77.9853L118.959 76.9223V80.2452ZM128.366 85.5618C127.438 85.5618 126.754 85.6632 126.316 85.8659C125.876 86.0683 125.657 86.4165 125.657 86.9101C125.657 87.2395 125.768 87.5115 125.991 87.7267C126.214 87.9419 126.516 88.0493 126.9 88.0493C127.481 88.0493 127.963 87.8533 128.347 87.461C128.731 87.0684 128.922 86.5303 128.922 85.8467V85.5618H128.366ZM132.002 90.0054L129.163 90.002L129.089 88.4864C128.693 89.0686 128.22 89.4865 127.67 89.7397C127.12 89.993 126.467 90.1192 125.713 90.1192C124.735 90.1192 123.962 89.8377 123.393 89.2743C122.824 88.711 122.54 87.9607 122.54 87.0239C122.54 85.9228 122.957 85.1157 123.792 84.6032C124.627 84.0903 125.91 83.8341 127.642 83.8341H128.922V83.7011C128.922 83.1693 128.724 82.7609 128.328 82.476C127.932 82.1915 127.351 82.049 126.585 82.049C125.818 82.049 124.878 82.3147 123.765 82.8468L123.709 80.6442C124.266 80.4034 124.853 80.2293 125.471 80.1219C126.09 80.0142 126.757 79.9607 127.475 79.9607C129.058 79.9607 130.209 80.3593 130.926 81.1567C131.643 81.9545 132.002 83.201 132.002 84.8975L132.002 90.0054ZM130.239 75.5171L127.289 78.9538H125.898L127.642 75.5171H130.239ZM144.322 90.0054H141.075V84.9921C141.075 83.4735 140.537 82.7138 139.46 82.7138C138.916 82.7138 138.468 82.9384 138.115 83.3875C137.763 83.8371 137.587 84.4796 137.587 85.315V90.0054H134.321V80.2452H137.29V81.9921C137.661 81.3462 138.14 80.8496 138.728 80.5014C139.315 80.1536 139.986 79.9791 140.74 79.9791C141.903 79.9791 142.79 80.3435 143.403 81.0712C144.015 81.7992 144.322 82.872 144.322 84.29L144.322 90.0054ZM149.924 80.2452V90.0054H146.659V80.2452H149.924ZM149.924 75.7639V78.4793H146.659V75.7639H149.924ZM159.813 82.9414C159.17 82.5871 158.539 82.41 157.921 82.41C157.104 82.41 156.458 82.6538 155.982 83.1411C155.506 83.6283 155.268 84.29 155.268 85.1255C155.268 85.9353 155.518 86.5872 156.019 87.0808C156.52 87.5748 157.203 87.8213 158.069 87.8213C158.774 87.8213 159.436 87.6317 160.054 87.2519L160.129 89.8151C159.288 90.1192 158.28 90.2711 157.104 90.2711C156.325 90.2711 155.617 90.1474 154.98 89.901C154.343 89.6538 153.796 89.306 153.338 88.8564C152.881 88.4069 152.525 87.8658 152.271 87.2331C152.018 86.6004 151.891 85.9036 151.891 85.1443C151.891 84.3469 152.015 83.6313 152.262 82.9983C152.51 82.3656 152.868 81.8244 153.338 81.3749C153.808 80.9257 154.383 80.5805 155.064 80.3401C155.744 80.0997 156.511 79.9791 157.364 79.9791C158.18 79.9791 159.071 80.1502 160.036 80.492L159.813 82.9414ZM167.012 82.3147C166.406 82.3147 165.908 82.5653 165.518 83.065C165.129 83.565 164.934 84.2456 164.934 85.1062C164.934 85.9669 165.132 86.6441 165.528 87.1377C165.923 87.6317 166.419 87.8786 167.012 87.8786C167.63 87.8786 168.131 87.6348 168.515 87.1475C168.898 86.6599 169.09 85.9797 169.09 85.1062C169.09 84.2331 168.898 83.5492 168.515 83.0555C168.131 82.5619 167.63 82.3147 167.012 82.3147ZM167.012 79.9791C167.878 79.9791 168.651 80.0963 169.331 80.3307C170.011 80.5647 170.587 80.9035 171.056 81.3462C171.526 81.7898 171.885 82.3305 172.133 82.97C172.38 83.6091 172.504 84.3277 172.504 85.1255C172.504 85.9228 172.38 86.6414 172.133 87.2805C171.885 87.9196 171.526 88.4578 171.056 88.8945C170.587 89.3312 170.011 89.6666 169.331 89.901C168.651 90.135 167.878 90.2522 167.012 90.2522C165.28 90.2522 163.935 89.8027 162.977 88.9039C162.018 88.0052 161.539 86.7458 161.539 85.1255C161.539 84.3277 161.662 83.6091 161.91 82.97C162.157 82.3305 162.516 81.7898 162.986 81.3463C163.456 80.9035 164.028 80.5647 164.702 80.3307C165.376 80.0963 166.146 79.9791 167.012 79.9791Z" fill="#004890"/>
</g>
<defs>
<clipPath id="clip0_2245_19523">
<rect width="174.545" height="128" fill="white" transform="translate(0.818359)"/>
</clipPath>
</defs>
</svg>
