<svg width="175" height="128" viewBox="0 0 175 128" fill="none" xmlns="http://www.w3.org/2000/svg">
<g clip-path="url(#clip0_2245_19518)">
<path d="M34.0263 48.4755H1.81738V80.1871H34.0263V48.4755Z" fill="#FEBA31"/>
<path d="M54.4101 57.3496C46.4037 57.3485 39.9117 61.7899 39.9092 67.27C39.9085 72.7518 46.4015 77.1956 54.4101 77.1944C58.6452 77.1942 62.1843 75.2668 64.6119 73.0057L60.8405 70.2717C59.645 72.6156 57.1856 74.2924 54.4101 74.2927C50.5188 74.2944 47.3631 71.1893 47.3626 67.358C47.3608 63.5251 50.5172 60.4175 54.4101 60.4193C57.2119 60.4196 59.695 61.9591 60.8772 64.2444L64.6119 61.5384C62.1843 59.2769 58.6437 57.3498 54.4101 57.3496ZM118.253 57.3486C110.247 57.3475 103.755 61.7889 103.752 67.269C103.752 72.7507 110.245 77.1945 118.253 77.1934C122.488 77.1932 126.028 75.2657 128.455 73.0046L124.684 70.2707C123.488 72.6146 121.029 74.2914 118.253 74.2916C114.362 74.2934 111.206 71.1883 111.206 67.3569C111.204 63.5241 114.36 60.4165 118.253 60.4183C121.055 60.4186 123.538 61.9581 124.72 64.2433L128.455 61.5374C126.027 59.2759 122.487 57.3488 118.253 57.3486ZM152.354 57.7583C151.525 57.7336 150.73 57.7351 149.967 57.7623C144.885 57.939 141.276 59.2466 138.885 61.7247C135.385 65.3514 135.115 69.7353 138.154 73.7103C139.632 75.6443 141.722 76.5461 144.057 76.9721C146.6 77.4362 149.397 77.1377 151.12 76.4096C153.205 75.5288 155.325 73.5419 156.008 71.8255L156.49 70.3972V77.1625H162.733V67.9928V58.9938L160.76 58.6594C157.638 58.1327 154.842 57.8312 152.354 57.7583ZM150.735 60.5049C151.259 60.4964 151.819 60.515 152.411 60.5521C154.686 60.698 155.767 60.7281 156.279 61.1125C156.279 61.1125 156.489 62.2355 156.489 63.7984C156.489 65.2626 156.528 67.1408 156.272 67.9732C155.653 69.9966 153.033 72.8422 150.91 73.8007C148.065 75.0849 145.221 74.403 143.363 71.9907C142.367 70.697 142.43 66.6068 143.477 64.6207C144.97 61.7859 147.06 60.5625 150.735 60.5049ZM81.9589 77.1944C84.9743 77.1874 87.6303 75.8958 89.7778 73.3373L90.9144 71.8865V76.7707H97.154V57.3496H90.9132L90.9142 62.0859C90.7603 67.3352 90.5152 68.4215 88.986 70.6114C86.6893 73.8355 83.2271 74.4967 80.8668 72.9696C79.7126 71.9061 78.1405 71.3008 78.1955 64.7679C78.2191 61.5842 78.1955 57.3496 78.1955 57.3496H72.0574V64.3522C72.0574 70.6985 72.6332 71.5989 73.1981 72.6818C74.1862 74.5887 75.9863 76.0254 78.8289 76.7707C79.9086 77.0539 80.9538 77.1967 81.9589 77.1944ZM172.156 51.4701C170.597 51.4701 169.331 52.3957 169.331 53.5365C169.331 54.6773 170.597 55.599 172.156 55.599C173.716 55.599 174.978 54.6773 174.978 53.5365C174.978 52.3957 173.716 51.4701 172.156 51.4701ZM175.273 57.7733H169.035V77.1944H175.273V57.7733ZM-1.17383 43.9739V84.6907H175.273V83.3357H37.019V45.3288H175.273V43.9739H-1.17383ZM8.49611 51.4681C10.0559 51.4681 11.3176 52.3938 11.3176 53.5346C11.3176 54.6753 10.0559 55.597 8.49611 55.597C6.93634 55.597 5.67077 54.6753 5.67077 53.5346C5.67077 52.3938 6.93634 51.4681 8.49611 51.4681ZM20.5694 57.3476C21.5745 57.3456 22.6198 57.4882 23.6994 57.7713C26.5421 58.5166 28.342 59.9534 29.33 61.8602C29.8949 62.9431 30.4709 63.8435 30.4709 70.1898V77.1924H24.3327C24.3327 77.1924 24.3091 72.9579 24.3327 69.7741C24.3876 63.2413 22.8157 62.6359 21.6615 61.5724C19.3012 60.0453 15.839 60.7066 13.5423 63.9306C12.0131 66.1206 11.7679 67.2068 11.6139 72.4561V77.1924H5.37433V57.7713H11.6139V62.6556L12.7507 61.2047C14.8981 58.6462 17.554 57.3546 20.5694 57.3476Z" fill="#A50047"/>
</g>
<defs>
<clipPath id="clip0_2245_19518">
<rect width="174.545" height="128" fill="white" transform="translate(0.272461)"/>
</clipPath>
</defs>
</svg>
