<svg width="175" height="42" viewBox="0 0 175 42" fill="none" xmlns="http://www.w3.org/2000/svg">
<path d="M34.0263 5.47546H1.81738V37.1871H34.0263V5.47546Z" fill="#FEBA31"/>
<path d="M54.4101 14.3496C46.4037 14.3485 39.9117 18.7899 39.9092 24.27C39.9085 29.7518 46.4015 34.1956 54.4101 34.1944C58.6452 34.1942 62.1843 32.2668 64.6119 30.0057L60.8405 27.2717C59.645 29.6156 57.1856 31.2924 54.4101 31.2927C50.5188 31.2944 47.3631 28.1893 47.3626 24.358C47.3608 20.5251 50.5172 17.4175 54.4101 17.4193C57.2119 17.4196 59.695 18.9591 60.8772 21.2444L64.6119 18.5384C62.1843 16.2769 58.6437 14.3498 54.4101 14.3496ZM118.253 14.3486C110.247 14.3475 103.755 18.7889 103.752 24.269C103.752 29.7507 110.245 34.1945 118.253 34.1934C122.488 34.1932 126.028 32.2657 128.455 30.0046L124.684 27.2707C123.488 29.6146 121.029 31.2914 118.253 31.2916C114.362 31.2934 111.206 28.1883 111.206 24.3569C111.204 20.5241 114.36 17.4165 118.253 17.4183C121.055 17.4186 123.538 18.9581 124.72 21.2433L128.455 18.5374C126.027 16.2759 122.487 14.3488 118.253 14.3486ZM152.354 14.7583C151.525 14.7336 150.73 14.7351 149.967 14.7623C144.885 14.939 141.276 16.2466 138.885 18.7247C135.385 22.3514 135.115 26.7353 138.154 30.7103C139.632 32.6443 141.722 33.5461 144.057 33.9721C146.6 34.4362 149.397 34.1377 151.12 33.4096C153.205 32.5288 155.325 30.5419 156.008 28.8255L156.49 27.3972V34.1625H162.733V24.9928V15.9938L160.76 15.6594C157.638 15.1327 154.842 14.8312 152.354 14.7583ZM150.735 17.5049C151.259 17.4964 151.819 17.515 152.411 17.5521C154.686 17.698 155.767 17.7281 156.279 18.1125C156.279 18.1125 156.489 19.2355 156.489 20.7984C156.489 22.2626 156.528 24.1408 156.272 24.9732C155.653 26.9966 153.033 29.8422 150.91 30.8007C148.065 32.0849 145.221 31.403 143.363 28.9907C142.367 27.697 142.43 23.6068 143.477 21.6207C144.97 18.7859 147.06 17.5625 150.735 17.5049ZM81.9589 34.1944C84.9743 34.1874 87.6303 32.8958 89.7778 30.3373L90.9144 28.8865V33.7707H97.154V14.3496H90.9132L90.9142 19.0859C90.7603 24.3352 90.5152 25.4215 88.986 27.6114C86.6893 30.8355 83.2271 31.4967 80.8668 29.9696C79.7126 28.9061 78.1405 28.3008 78.1955 21.7679C78.2191 18.5842 78.1955 14.3496 78.1955 14.3496H72.0574V21.3522C72.0574 27.6985 72.6332 28.5989 73.1981 29.6818C74.1862 31.5887 75.9863 33.0254 78.8289 33.7707C79.9086 34.0539 80.9538 34.1967 81.9589 34.1944ZM172.156 8.47014C170.597 8.47012 169.331 9.39575 169.331 10.5365C169.331 11.6773 170.597 12.599 172.156 12.599C173.716 12.599 174.978 11.6773 174.978 10.5365C174.978 9.39575 173.716 8.47012 172.156 8.47014ZM175.273 14.7733H169.035V34.1944H175.273V14.7733ZM-1.17383 0.973877V41.6907H175.273V40.3357H37.019V2.32883H175.273V0.973877H-1.17383ZM8.49611 8.46813C10.0559 8.46812 11.3176 9.39377 11.3176 10.5346C11.3176 11.6753 10.0559 12.597 8.49611 12.597C6.93634 12.597 5.67077 11.6753 5.67077 10.5346C5.67077 9.39377 6.93634 8.46812 8.49611 8.46813ZM20.5694 14.3476C21.5745 14.3456 22.6198 14.4882 23.6994 14.7713C26.5421 15.5166 28.342 16.9534 29.33 18.8602C29.8949 19.9431 30.4709 20.8435 30.4709 27.1898V34.1924H24.3327C24.3327 34.1924 24.3091 29.9579 24.3327 26.7741C24.3876 20.2413 22.8157 19.6359 21.6615 18.5724C19.3012 17.0453 15.839 17.7066 13.5423 20.9306C12.0131 23.1206 11.7679 24.2068 11.6139 29.4561V34.1924H5.37433V14.7713H11.6139V19.6556L12.7507 18.2047C14.8981 15.6462 17.554 14.3546 20.5694 14.3476Z" fill="#A50047"/>
</svg>
