<svg width="24" height="24" viewBox="0 0 24 24" fill="none" xmlns="http://www.w3.org/2000/svg">
<path d="M12.6832 22V14.255H10.0762V11.237H12.6832V9.01003C12.6303 8.48228 12.6935 7.94936 12.8683 7.44861C13.0432 6.94787 13.3254 6.49142 13.6953 6.11127C14.0651 5.73112 14.5137 5.43647 15.0094 5.24796C15.5052 5.05945 16.0362 4.98166 16.5652 5.02003C17.3431 5.01717 18.1206 5.0569 18.8942 5.13903V7.83903H17.2952C16.0422 7.83903 15.8002 8.43503 15.8002 9.30903V11.236H18.7892L18.3992 14.254H15.7992V22H12.6832Z" fill="white"/>
<path d="M20.999 2H2.99805C2.73283 2 2.47848 2.10536 2.29094 2.29289C2.1034 2.48043 1.99805 2.73478 1.99805 3V21.001C1.99805 21.2662 2.1034 21.5206 2.29094 21.7081C2.47848 21.8956 2.73283 22.001 2.99805 22.001H20.999C21.2643 22.001 21.5186 21.8956 21.7062 21.7081C21.8937 21.5206 21.999 21.2662 21.999 21.001V3C21.999 2.73478 21.8937 2.48043 21.7062 2.29289C21.5186 2.10536 21.2643 2 20.999 2ZM18.894 7.84H17.295C16.042 7.84 15.8 8.436 15.8 9.31V11.236H18.789L18.399 14.255H15.799V22H12.683V14.255H10.076V11.236H12.683V9.01C12.6302 8.48225 12.6934 7.94933 12.8682 7.44859C13.043 6.94784 13.3253 6.4914 13.6951 6.11124C14.065 5.73109 14.5135 5.43644 15.0093 5.24793C15.5051 5.05942 16.036 4.98163 16.565 5.02C17.343 5.01758 18.1205 5.05764 18.894 5.14V7.84Z" fill="#5666BF"/>
</svg>
