<svg width="129" height="128" viewBox="0 0 129 128" fill="none" xmlns="http://www.w3.org/2000/svg">
<path d="M109.407 24.4266C106.732 21.7417 103.552 19.6114 100.052 18.1578C96.5508 16.7042 92.7976 15.9559 89.0071 15.9559C85.2166 15.9559 81.4634 16.7042 77.9628 18.1578C74.4621 19.6114 71.2828 21.7417 68.6071 24.4266L64.5005 28.5866L60.3938 24.4266C57.7182 21.7417 54.5389 19.6114 51.0382 18.1578C47.5375 16.7042 43.7843 15.9559 39.9938 15.9559C36.2033 15.9559 32.4501 16.7042 28.9494 18.1578C25.4487 19.6114 22.2694 21.7417 19.5938 24.4266C8.28713 35.7333 7.59379 54.8266 21.8338 69.3333L64.5005 112L107.167 69.3333C121.407 54.8266 120.714 35.7333 109.407 24.4266Z" stroke="#5666BF" stroke-width="7" stroke-linecap="round" stroke-linejoin="round"/>
<path d="M64.4997 28.5867L47.8064 45.3333C45.6959 47.461 44.5117 50.3365 44.5117 53.3333C44.5117 56.3302 45.6959 59.2056 47.8064 61.3333C49.9341 63.4438 52.8095 64.628 55.8064 64.628C58.8032 64.628 61.6787 63.4438 63.8064 61.3333L75.8597 49.5467C78.8553 46.5828 82.8991 44.9204 87.1131 44.9204C91.327 44.9204 95.3709 46.5828 98.3664 49.5467L111.166 62.3467" stroke="#5666BF" stroke-width="7" stroke-linecap="round" stroke-linejoin="round"/>
<path d="M96.4997 80L85.833 69.3333" stroke="#5666BF" stroke-width="7" stroke-linecap="round" stroke-linejoin="round"/>
<path d="M80.5007 96L69.834 85.3333" stroke="#5666BF" stroke-width="7" stroke-linecap="round" stroke-linejoin="round"/>
</svg>
