<svg width="129" height="128" viewBox="0 0 129 128" fill="none" xmlns="http://www.w3.org/2000/svg">
<path d="M85.8346 112V101.333C85.8346 95.6754 83.587 90.2492 79.5862 86.2484C75.5855 82.2476 70.1593 80 64.5013 80H32.5013C26.8434 80 21.4171 82.2476 17.4164 86.2484C13.4156 90.2492 11.168 95.6754 11.168 101.333V112" stroke="#5666BF" stroke-width="7" stroke-linecap="round" stroke-linejoin="round"/>
<path d="M48.5003 58.6667C60.2824 58.6667 69.8337 49.1154 69.8337 37.3333C69.8337 25.5513 60.2824 16 48.5003 16C36.7183 16 27.167 25.5513 27.167 37.3333C27.167 49.1154 36.7183 58.6667 48.5003 58.6667Z" stroke="#5666BF" stroke-width="7" stroke-linecap="round" stroke-linejoin="round"/>
<path d="M117.832 112V101.333C117.829 96.6065 116.255 92.0148 113.359 88.279C110.463 84.5432 106.409 81.875 101.832 80.6933" stroke="#5666BF" stroke-width="7" stroke-linecap="round" stroke-linejoin="round"/>
<path d="M85.833 16.6933C90.4219 17.8683 94.4892 20.5371 97.3937 24.279C100.298 28.0209 101.875 32.6231 101.875 37.36C101.875 42.0969 100.298 46.6991 97.3937 50.441C94.4892 54.1829 90.4219 56.8517 85.833 58.0267" stroke="#5666BF" stroke-width="7" stroke-linecap="round" stroke-linejoin="round"/>
</svg>
