<svg width="129" height="128" viewBox="0 0 129 128" fill="none" xmlns="http://www.w3.org/2000/svg">
<path d="M112.5 40V32C112.5 29.171 111.376 26.4579 109.376 24.4575C107.375 22.4571 104.662 21.3333 101.833 21.3333H27.1667C24.3377 21.3333 21.6246 22.4571 19.6242 24.4575C17.6238 26.4579 16.5 29.171 16.5 32V106.667C16.5 109.496 17.6238 112.209 19.6242 114.209C21.6246 116.21 24.3377 117.333 27.1667 117.333H45.8333" stroke="#5666BF" stroke-width="7" stroke-linecap="round" stroke-linejoin="round"/>
<path d="M85.833 10.6667V32" stroke="#5666BF" stroke-width="7" stroke-linecap="round" stroke-linejoin="round"/>
<path d="M43.166 10.6667V32" stroke="#5666BF" stroke-width="7" stroke-linecap="round" stroke-linejoin="round"/>
<path d="M16.5 53.3333H43.1667" stroke="#5666BF" stroke-width="7" stroke-linecap="round" stroke-linejoin="round"/>
<path d="M93.833 93.3333L85.833 86.6667V74.6667" stroke="#5666BF" stroke-width="7" stroke-linecap="round" stroke-linejoin="round"/>
<path d="M117.834 85.3333C117.834 93.8203 114.463 101.96 108.461 107.961C102.46 113.962 94.3209 117.333 85.834 117.333C77.3471 117.333 69.2077 113.962 63.2066 107.961C57.2054 101.96 53.834 93.8203 53.834 85.3333C53.834 76.8464 57.2054 68.7071 63.2066 62.7059C69.2077 56.7048 77.3471 53.3333 85.834 53.3333C94.3209 53.3333 102.46 56.7048 108.461 62.7059C114.463 68.7071 117.834 76.8464 117.834 85.3333Z" stroke="#5666BF" stroke-width="7" stroke-linecap="round" stroke-linejoin="round"/>
</svg>
