<svg width="129" height="128" viewBox="0 0 129 128" fill="none" xmlns="http://www.w3.org/2000/svg">
<path d="M21.833 32V21.3334C21.833 18.5044 22.9568 15.7913 24.9572 13.7909C26.9576 11.7905 29.6707 10.6667 32.4997 10.6667H77.833L107.166 40V106.667C107.166 109.496 106.043 112.209 104.042 114.209C102.042 116.21 99.3287 117.333 96.4997 117.333H21.833" stroke="#5666BF" stroke-width="7" stroke-linecap="round" stroke-linejoin="round"/>
<path d="M75.167 10.6667V42.6667H107.167" stroke="#5666BF" stroke-width="7" stroke-linecap="round" stroke-linejoin="round"/>
<path d="M55.3802 57.0667C53.5584 55.2476 51.2361 54.0123 48.7095 53.5184C46.1828 53.0245 43.5663 53.2943 41.1936 54.2934C39.6469 54.9334 38.2069 55.8934 37.0335 57.12L35.1669 58.9334L33.3002 57.12C31.4888 55.3027 29.1788 54.0639 26.6627 53.5607C24.1467 53.0575 21.5379 53.3125 19.1669 54.2934C17.5669 54.9334 16.1802 55.8934 14.9535 57.12C9.88688 62.1334 9.62022 70.6134 16.0202 77.0667L35.1669 96L54.3669 77.0667C60.7669 70.6134 60.4469 62.1334 55.3802 57.12V57.0667Z" stroke="#5666BF" stroke-width="7" stroke-linecap="round" stroke-linejoin="round"/>
</svg>
