<svg width="24" height="24" viewBox="0 0 24 24" fill="none" xmlns="http://www.w3.org/2000/svg">
<path d="M5.08582 9.7109H8.08782V18.7419H5.08582V9.7109ZM6.58682 8.4779H6.56682C6.35137 8.49216 6.13531 8.46169 5.93221 8.3884C5.72911 8.31511 5.54338 8.20058 5.38669 8.05203C5.23 7.90347 5.10574 7.7241 5.02174 7.5252C4.93774 7.32629 4.8958 7.11216 4.89857 6.89626C4.90133 6.68036 4.94875 6.46737 5.03782 6.27068C5.1269 6.07399 5.25571 5.89787 5.41616 5.75338C5.5766 5.60889 5.76521 5.49916 5.97012 5.4311C6.17503 5.36304 6.39181 5.33812 6.60682 5.3579C6.82226 5.34208 7.03864 5.37104 7.24234 5.44294C7.44604 5.51484 7.63265 5.62814 7.79042 5.7757C7.94819 5.92325 8.0737 6.10187 8.15906 6.30031C8.24442 6.49875 8.28777 6.71272 8.28638 6.92873C8.285 7.14475 8.23891 7.35813 8.15101 7.55546C8.06312 7.75279 7.93533 7.92979 7.77568 8.07531C7.61603 8.22083 7.42798 8.33173 7.22338 8.40102C7.01877 8.4703 6.80204 8.49648 6.58682 8.4779ZM18.9118 18.7419H15.9098V13.9119C15.9098 12.6969 15.4758 11.8689 14.3898 11.8689C14.0513 11.871 13.7216 11.9775 13.446 12.1741C13.1703 12.3706 12.9621 12.6475 12.8498 12.9669C12.7723 13.2028 12.7384 13.4509 12.7498 13.6989V18.7419H9.74982C9.74982 18.7389 9.78982 10.5579 9.74982 9.7119H12.7518V10.9919C13.023 10.5194 13.4186 10.1304 13.8956 9.86716C14.3725 9.60392 14.9125 9.47654 15.4568 9.4989C17.4318 9.4989 18.9128 10.7899 18.9128 13.5639L18.9118 18.7419Z" fill="white"/>
<path d="M20.4675 1.9999H3.53152C3.14659 1.99509 2.77551 2.14334 2.49985 2.41206C2.22419 2.68078 2.06653 3.04797 2.06152 3.4329V20.5679C2.07252 21.3679 2.73052 22.0099 3.53152 21.9999H20.4675C20.6581 22.0024 20.8473 21.9674 21.0243 21.8967C21.2013 21.8261 21.3626 21.7214 21.4991 21.5884C21.6356 21.4554 21.7446 21.2968 21.8198 21.1217C21.8951 20.9466 21.935 20.7584 21.9375 20.5679V3.4329C21.9352 3.24217 21.8952 3.05378 21.82 2.87851C21.7448 2.70323 21.6358 2.5445 21.4991 2.41141C21.3625 2.27831 21.201 2.17346 21.0238 2.10285C20.8466 2.03224 20.6572 1.99725 20.4665 1.9999H20.4675ZM8.08752 18.7419H5.08552V9.7109H8.08752V18.7419ZM6.83252 8.47989C6.7506 8.48566 6.66834 8.48499 6.58652 8.47789H6.56652C6.35108 8.49216 6.13501 8.46169 5.93192 8.38839C5.72882 8.3151 5.54308 8.20058 5.38639 8.05202C5.22971 7.90347 5.10545 7.7241 5.02145 7.52519C4.93744 7.32629 4.8955 7.11215 4.89827 6.89625C4.90104 6.68035 4.94845 6.46736 5.03753 6.27067C5.12661 6.07399 5.25542 5.89786 5.41586 5.75337C5.57631 5.60888 5.76492 5.49916 5.96983 5.4311C6.17474 5.36304 6.39151 5.33811 6.60652 5.3579C7.02053 5.32793 7.42948 5.46365 7.74341 5.7352C8.05735 6.00675 8.25055 6.39189 8.28052 6.8059C8.31049 7.2199 8.17477 7.62885 7.90322 7.94279C7.63167 8.25672 7.24653 8.44992 6.83252 8.47989ZM18.9115 18.7419H15.9095V13.9119C15.9095 12.6969 15.4755 11.8689 14.3895 11.8689C14.051 11.871 13.7213 11.9775 13.4457 12.1741C13.17 12.3706 12.9618 12.6475 12.8495 12.9669C12.7724 13.2029 12.7385 13.4509 12.7495 13.6989V18.7419H9.74952C9.74952 18.7389 9.78952 10.5579 9.74952 9.71189H12.7515V10.9919C13.0227 10.5194 13.4183 10.1304 13.8953 9.86715C14.3722 9.60391 14.9122 9.47654 15.4565 9.49889C17.4315 9.49889 18.9125 10.7899 18.9125 13.5639L18.9115 18.7419Z" fill="#5666BF"/>
</svg>
