<svg width="84" height="106" viewBox="0 0 84 106" fill="none" xmlns="http://www.w3.org/2000/svg">
<g clip-path="url(#clip0_2429_21341)">
<path d="M29.3384 45.3092C25.9857 36.3406 24.2542 25.2927 23.3917 17.6042C23.1864 15.771 23.3712 13.9604 23.9408 12.2236C24.4882 10.555 25.361 9.0419 26.5336 7.72654C27.7058 6.41171 29.1076 5.37427 30.6991 4.64291C32.356 3.88121 34.1291 3.49548 35.9686 3.49548H42.908V8.63721H35.9686C33.7973 8.63721 31.8048 9.5311 30.3581 11.1536C28.9309 12.754 28.2494 14.8966 28.4888 17.0305C29.3184 24.4303 30.9726 35.0301 34.141 43.5057L29.3384 45.3103V45.3092Z" fill="#E3E8F6"/>
<path d="M77.972 45.3092L73.1694 43.5047C76.3378 35.029 77.992 24.4292 78.8215 17.0294C79.0609 14.8949 78.3795 12.7529 76.9522 11.1525C75.5056 9.53 73.5125 8.63612 71.3417 8.63612H64.4023V3.49438H71.3417C73.1813 3.49438 74.9538 3.88065 76.6113 4.64181C78.2028 5.37317 79.604 6.41062 80.7767 7.72544C81.9499 9.0408 82.8222 10.5539 83.3696 12.2225C83.9397 13.9593 84.1245 15.7699 83.9186 17.6031C83.0567 25.2916 81.3252 36.3395 77.972 45.3081V45.3092Z" fill="#E3E8F6"/>
<path d="M28.489 17.0295C29.3186 24.4292 30.9722 35.0296 34.1412 43.5047L29.3386 45.3093C29.2521 45.0768 29.1662 44.8434 29.0819 44.6082L32.0195 43.5042C28.8511 35.029 27.1975 24.4292 26.3674 17.0289C26.128 14.8944 26.8094 12.7524 28.2361 11.152C29.6828 9.5295 31.6758 8.63562 33.8466 8.63562H35.9683C33.7975 8.63562 31.8044 9.5295 30.3578 11.152C28.9305 12.7529 28.2491 14.8944 28.489 17.0289V17.0295Z" fill="#CDD7F0"/>
<path d="M83.9194 17.6037C83.0574 25.2927 81.3254 36.3406 77.9727 45.3092L76.1078 44.6082C79.2935 35.7707 80.9579 25.0933 81.7972 17.6037C82.0031 15.7704 81.8183 13.9604 81.2481 12.223C80.7002 10.5544 79.8279 9.04134 78.6547 7.72598C77.482 6.41061 76.0808 5.37317 74.4892 4.64181C72.8318 3.88011 71.0587 3.49438 69.2197 3.49438H71.3414C73.1804 3.49438 74.9535 3.88065 76.6104 4.64181C78.2019 5.37317 79.6037 6.41061 80.7764 7.72598C81.9496 9.04134 82.8218 10.5544 83.3692 12.223C83.9388 13.9604 84.1242 15.7709 83.9183 17.6037H83.9194Z" fill="#CDD7F0"/>
<path d="M32.5892 105.678C29.4408 105.678 26.3853 105.06 23.5076 103.84C20.7294 102.661 18.2343 100.975 16.0927 98.8285C13.9511 96.6815 12.2693 94.1803 11.0939 91.3951C9.87691 88.5103 9.25977 85.4473 9.25977 82.2911V62.0183H14.1969V82.2911C14.1969 87.2161 16.11 91.8459 19.5837 95.3282C23.0575 98.8106 27.6763 100.728 32.5887 100.728C37.501 100.728 42.1198 98.8106 45.5936 95.3282C49.0673 91.8459 50.9804 87.2156 50.9804 82.2911V65.8235H55.9175V82.2911C55.9175 85.4473 55.3004 88.5103 54.0834 91.3951C52.9085 94.1803 51.2263 96.681 49.0846 98.8285C46.943 100.975 44.4479 102.661 41.6697 103.84C38.792 105.06 35.7365 105.678 32.5881 105.678H32.5892Z" fill="#5666BF"/>
<path d="M55.9187 65.8236V82.2911C55.9187 85.4473 55.3015 88.5099 54.0845 91.3952C52.9097 94.1803 51.2279 96.6816 49.0857 98.8285C46.9441 100.975 44.449 102.661 41.6708 103.84C38.7931 105.06 35.7376 105.678 32.5892 105.678C32.2515 105.678 31.9143 105.671 31.5781 105.657C34.3699 105.539 37.08 104.929 39.6486 103.84C42.4268 102.662 44.9219 100.976 47.0635 98.8285C49.2052 96.6816 50.8869 94.1803 52.0623 91.3952C53.2793 88.5104 53.8965 85.4473 53.8965 82.2911V65.8236H55.9181H55.9187Z" fill="#4852AD"/>
<path d="M31.5786 100.701C31.243 100.719 30.9063 100.728 30.5675 100.728C25.6546 100.728 21.0358 98.8106 17.562 95.3282C14.0888 91.8459 12.1758 87.2156 12.1758 82.2911V62.0183H14.1974V82.2911C14.1974 87.2156 16.1105 91.8459 19.5837 95.3282C22.818 98.5706 27.0451 100.457 31.5781 100.701H31.5786Z" fill="#4852AD"/>
<path d="M44.4482 61.184H62.861V63.896C62.861 66.6274 60.6491 68.8448 57.9244 68.8448H49.3854C46.6607 68.8448 44.4488 66.6274 44.4488 63.896V61.184H44.4482Z" fill="#4852AD"/>
<path d="M62.8623 61.184V63.896C62.8623 66.6291 60.652 68.8448 57.9257 68.8448H55.6943C58.4207 68.8448 60.631 66.6291 60.631 63.896V61.184H62.8623Z" fill="#4852AD"/>
<path d="M11.8317 67.2819C18.3662 67.2819 23.6634 61.9715 23.6634 55.4208C23.6634 48.8702 18.3662 43.5598 11.8317 43.5598C5.29723 43.5598 0 48.8702 0 55.4208C0 61.9715 5.29723 67.2819 11.8317 67.2819Z" fill="#0D0D0D"/>
<path d="M11.8319 64.3511C16.7517 64.3511 20.74 60.3529 20.74 55.4209C20.74 50.4889 16.7517 46.4907 11.8319 46.4907C6.91212 46.4907 2.92383 50.4889 2.92383 55.4209C2.92383 60.3529 6.91212 64.3511 11.8319 64.3511Z" fill="#5666BF"/>
<path d="M11.8313 61.5231C15.1931 61.5231 17.9185 58.791 17.9185 55.4209C17.9185 52.0507 15.1931 49.3186 11.8313 49.3186C8.46946 49.3186 5.74414 52.0507 5.74414 55.4209C5.74414 58.791 8.46946 61.5231 11.8313 61.5231Z" fill="#E3E8F6"/>
<path d="M53.6555 63.858C50.7513 63.858 48.0212 63.52 45.5407 62.8531C42.9014 62.1434 40.4598 61.041 38.2841 59.5755C36.0598 58.077 34.0581 56.1631 32.3348 53.8855C30.6341 51.6384 29.1545 48.9686 27.9364 45.95C27.0863 43.8442 28.1007 41.4465 30.2012 40.5943C32.3018 39.7421 34.6936 40.7584 35.5437 42.8648C37.3914 47.4431 39.7848 50.6757 42.8608 52.7473C45.7428 54.6884 49.2739 55.6321 53.6555 55.6321C58.0371 55.6321 61.5681 54.6884 64.4501 52.7473C67.5261 50.6757 69.9196 47.4431 71.7673 42.8648C72.6173 40.759 75.0092 39.7427 77.1097 40.5943C79.2103 41.4465 80.2247 43.8442 79.3746 45.95C78.1565 48.9686 76.6763 51.6384 74.9762 53.8855C73.2529 56.1631 71.2512 58.0776 69.0269 59.5755C66.8512 61.041 64.4096 62.1434 61.7703 62.8531C59.2898 63.52 56.5596 63.858 53.6555 63.858Z" fill="#5666BF"/>
<path d="M79.3747 45.9499C78.1566 48.968 76.677 51.6383 74.9763 53.8849C73.253 56.1624 71.2518 58.077 69.027 59.5755C66.8513 61.0409 64.4092 62.1433 61.7698 62.853C59.2894 63.5194 56.5592 63.858 53.6551 63.858C53.1163 63.858 52.5834 63.8461 52.0576 63.8228C54.3684 63.7209 56.5538 63.3953 58.5739 62.853C61.2132 62.1428 63.6553 61.0403 65.8305 59.5755C68.0553 58.077 70.057 56.163 71.7798 53.8849C73.4799 51.6378 74.9601 48.968 76.1782 45.9499C77.0196 43.8642 76.0328 41.4914 73.9728 40.6186C74.9385 40.209 76.0604 40.1684 77.1093 40.5937C79.2099 41.4459 80.2242 43.8436 79.3742 45.9499H79.3747Z" fill="#4852AD"/>
<path d="M42.8919 0.678223H49.3703C50.001 0.678223 50.5127 1.19126 50.5127 1.82348V31.533C50.5127 32.1652 50.001 32.6782 49.3703 32.6782H42.8919C41.1664 32.6782 39.7656 31.274 39.7656 29.5442L39.7656 3.81224C39.7656 2.08243 41.1664 0.678223 42.8919 0.678223Z" fill="#0D0D0D"/>
<path d="M64.3776 0.678101H57.8992C57.2686 0.678101 56.7568 1.19114 56.7568 1.82336V31.5328C56.7568 32.1651 57.2686 32.6781 57.8992 32.6781H64.3776C66.1032 32.6781 67.5039 31.2739 67.5039 29.5441L67.5039 3.81211C67.5039 2.08231 66.1032 0.678101 64.3776 0.678101Z" fill="#0D0D0D"/>
<path d="M10.3695 54.266C8.92282 55.7157 8.45915 57.6021 7.45129 56.5917C6.44343 55.5813 6.79902 53.5872 8.24515 52.1364C9.69183 50.6866 11.6816 50.3302 12.6895 51.3405C13.6973 52.3509 11.8162 52.8157 10.3695 54.266Z" fill="white"/>
<path d="M31.268 43.9549C30.3186 44.9062 30.0143 46.1441 29.3528 45.481C28.6914 44.8179 28.9248 43.509 29.8738 42.5572C30.8233 41.6059 32.1289 41.3718 32.7904 42.0349C33.4518 42.698 32.217 43.003 31.268 43.9549Z" fill="#667CCB"/>
<path d="M28.8184 9.0955C27.4063 10.3887 26.9205 11.872 26.2493 11.412C25.1496 10.6579 26.2271 9.00069 27.6387 7.70754C29.0508 6.41439 30.5293 5.68574 31.3616 6.72914C31.896 7.39928 30.2299 7.80235 28.8184 9.09604V9.0955Z" fill="white"/>
<path d="M44.0375 2.18055C43.2501 2.67083 42.2023 3.50783 41.3998 4.81886C41.236 5.08648 40.8242 4.9673 40.8242 4.65363V3.38323C40.8242 2.4005 41.6186 1.60413 42.5989 1.60413H43.8721C44.185 1.60413 44.3034 2.01531 44.0375 2.18109V2.18055Z" fill="white"/>
<path d="M60.9633 2.1806C60.1759 2.67088 59.128 3.50788 58.3255 4.81891C58.1618 5.08654 57.75 4.96735 57.75 4.65368V2.14105C57.75 1.84417 57.9899 1.60364 58.2861 1.60364H60.7979C61.1108 1.60364 61.2291 2.01482 60.9633 2.1806Z" fill="white"/>
</g>
<defs>
<clipPath id="clip0_2429_21341">
<rect width="84" height="105" fill="white" transform="translate(0 0.678101)"/>
</clipPath>
</defs>
</svg>
