<svg width="137" height="41" viewBox="0 0 137 41" fill="none" xmlns="http://www.w3.org/2000/svg">
<rect y="0.5" width="137" height="40" rx="20" fill="#E3E8F6"/>
<path d="M25.316 25.5V15.7H29.348C30.216 15.7 30.958 15.84 31.574 16.12C32.1993 16.4 32.68 16.8013 33.016 17.324C33.352 17.8467 33.52 18.4673 33.52 19.186C33.52 19.9047 33.352 20.5253 33.016 21.048C32.68 21.5613 32.1993 21.958 31.574 22.238C30.958 22.5087 30.216 22.644 29.348 22.644H26.324L27.136 21.818V25.5H25.316ZM31.728 25.5L29.25 21.944H31.196L33.688 25.5H31.728ZM27.136 22.014L26.324 21.146H29.264C30.0667 21.146 30.6687 20.9733 31.07 20.628C31.4807 20.2827 31.686 19.802 31.686 19.186C31.686 18.5607 31.4807 18.08 31.07 17.744C30.6687 17.408 30.0667 17.24 29.264 17.24H26.324L27.136 16.344V22.014ZM38.9022 25.598C38.0716 25.598 37.3436 25.4347 36.7182 25.108C36.1022 24.772 35.6216 24.3147 35.2762 23.736C34.9402 23.1573 34.7722 22.4993 34.7722 21.762C34.7722 21.0153 34.9356 20.3573 35.2622 19.788C35.5982 19.2093 36.0556 18.7567 36.6342 18.43C37.2222 18.1033 37.8896 17.94 38.6362 17.94C39.3642 17.94 40.0129 18.0987 40.5822 18.416C41.1516 18.7333 41.5996 19.1813 41.9262 19.76C42.2529 20.3387 42.4162 21.02 42.4162 21.804C42.4162 21.8787 42.4116 21.9627 42.4022 22.056C42.4022 22.1493 42.3976 22.238 42.3882 22.322H36.1582V21.16H41.4642L40.7782 21.524C40.7876 21.0947 40.6989 20.7167 40.5122 20.39C40.3256 20.0633 40.0689 19.8067 39.7422 19.62C39.4249 19.4333 39.0562 19.34 38.6362 19.34C38.2069 19.34 37.8289 19.4333 37.5022 19.62C37.1849 19.8067 36.9329 20.068 36.7462 20.404C36.5689 20.7307 36.4802 21.118 36.4802 21.566V21.846C36.4802 22.294 36.5829 22.6907 36.7882 23.036C36.9936 23.3813 37.2829 23.6473 37.6562 23.834C38.0296 24.0207 38.4589 24.114 38.9442 24.114C39.3642 24.114 39.7422 24.0487 40.0782 23.918C40.4142 23.7873 40.7129 23.582 40.9742 23.302L41.9122 24.38C41.5762 24.772 41.1516 25.0753 40.6382 25.29C40.1342 25.4953 39.5556 25.598 38.9022 25.598ZM47.4852 28.314C46.7946 28.314 46.1179 28.2207 45.4552 28.034C44.8019 27.8567 44.2652 27.5953 43.8452 27.25L44.6292 25.934C44.9559 26.2047 45.3666 26.4193 45.8612 26.578C46.3652 26.746 46.8739 26.83 47.3872 26.83C48.2086 26.83 48.8106 26.6387 49.1932 26.256C49.5759 25.8827 49.7672 25.318 49.7672 24.562V23.232L49.9072 21.538L49.8512 19.844V18.024H51.5172V24.366C51.5172 25.7193 51.1719 26.7133 50.4812 27.348C49.7906 27.992 48.7919 28.314 47.4852 28.314ZM47.2612 25.164C46.5519 25.164 45.9079 25.0147 45.3292 24.716C44.7599 24.408 44.3072 23.9833 43.9712 23.442C43.6446 22.9007 43.4812 22.266 43.4812 21.538C43.4812 20.8193 43.6446 20.1893 43.9712 19.648C44.3072 19.1067 44.7599 18.6867 45.3292 18.388C45.9079 18.0893 46.5519 17.94 47.2612 17.94C47.8959 17.94 48.4652 18.066 48.9692 18.318C49.4732 18.57 49.8746 18.962 50.1732 19.494C50.4812 20.026 50.6352 20.7073 50.6352 21.538C50.6352 22.3687 50.4812 23.0547 50.1732 23.596C49.8746 24.128 49.4732 24.5247 48.9692 24.786C48.4652 25.038 47.8959 25.164 47.2612 25.164ZM47.5272 23.68C47.9659 23.68 48.3579 23.5913 48.7032 23.414C49.0486 23.2273 49.3146 22.9753 49.5012 22.658C49.6972 22.3313 49.7952 21.958 49.7952 21.538C49.7952 21.118 49.6972 20.7493 49.5012 20.432C49.3146 20.1053 49.0486 19.858 48.7032 19.69C48.3579 19.5127 47.9659 19.424 47.5272 19.424C47.0886 19.424 46.6919 19.5127 46.3372 19.69C45.9919 19.858 45.7212 20.1053 45.5252 20.432C45.3386 20.7493 45.2452 21.118 45.2452 21.538C45.2452 21.958 45.3386 22.3313 45.5252 22.658C45.7212 22.9753 45.9919 23.2273 46.3372 23.414C46.6919 23.5913 47.0886 23.68 47.5272 23.68ZM53.8179 25.5V18.024H55.5679V25.5H53.8179ZM54.6999 16.792C54.3733 16.792 54.1026 16.6893 53.8879 16.484C53.6826 16.2787 53.5799 16.0313 53.5799 15.742C53.5799 15.4433 53.6826 15.196 53.8879 15C54.1026 14.7947 54.3733 14.692 54.6999 14.692C55.0266 14.692 55.2926 14.79 55.4979 14.986C55.7126 15.1727 55.8199 15.4107 55.8199 15.7C55.8199 16.008 55.7173 16.2693 55.5119 16.484C55.3066 16.6893 55.0359 16.792 54.6999 16.792ZM60.1748 25.598C59.5495 25.598 58.9475 25.5187 58.3688 25.36C57.7995 25.192 57.3468 24.9913 57.0108 24.758L57.6828 23.428C58.0188 23.6427 58.4201 23.82 58.8868 23.96C59.3535 24.1 59.8201 24.17 60.2868 24.17C60.8375 24.17 61.2341 24.0953 61.4768 23.946C61.7288 23.7967 61.8548 23.596 61.8548 23.344C61.8548 23.1387 61.7708 22.9847 61.6028 22.882C61.4348 22.77 61.2155 22.686 60.9448 22.63C60.6741 22.574 60.3708 22.5227 60.0348 22.476C59.7081 22.4293 59.3768 22.3687 59.0408 22.294C58.7141 22.21 58.4155 22.0933 58.1448 21.944C57.8741 21.7853 57.6548 21.5753 57.4868 21.314C57.3188 21.0527 57.2348 20.7073 57.2348 20.278C57.2348 19.802 57.3701 19.3913 57.6408 19.046C57.9115 18.6913 58.2895 18.4207 58.7748 18.234C59.2695 18.038 59.8528 17.94 60.5248 17.94C61.0288 17.94 61.5375 17.996 62.0508 18.108C62.5641 18.22 62.9888 18.3787 63.3248 18.584L62.6528 19.914C62.2981 19.6993 61.9388 19.5547 61.5748 19.48C61.2201 19.396 60.8655 19.354 60.5108 19.354C59.9788 19.354 59.5821 19.4333 59.3208 19.592C59.0688 19.7507 58.9428 19.9513 58.9428 20.194C58.9428 20.418 59.0268 20.586 59.1948 20.698C59.3628 20.81 59.5821 20.8987 59.8528 20.964C60.1235 21.0293 60.4221 21.0853 60.7488 21.132C61.0848 21.1693 61.4161 21.23 61.7428 21.314C62.0695 21.398 62.3681 21.5147 62.6388 21.664C62.9188 21.804 63.1428 22.0047 63.3108 22.266C63.4788 22.5273 63.5628 22.868 63.5628 23.288C63.5628 23.7547 63.4228 24.1607 63.1428 24.506C62.8721 24.8513 62.4848 25.122 61.9808 25.318C61.4768 25.5047 60.8748 25.598 60.1748 25.598ZM67.8839 25.598C67.0625 25.598 66.4279 25.388 65.9799 24.968C65.5319 24.5387 65.3079 23.9087 65.3079 23.078V16.372H67.0579V23.036C67.0579 23.3907 67.1465 23.666 67.3239 23.862C67.5105 24.058 67.7672 24.156 68.0939 24.156C68.4859 24.156 68.8125 24.0533 69.0739 23.848L69.5639 25.094C69.3585 25.262 69.1065 25.388 68.8079 25.472C68.5092 25.556 68.2012 25.598 67.8839 25.598ZM64.0759 19.48V18.08H69.0599V19.48H64.0759ZM71.0035 25.5V18.024H72.6695V20.082L72.4735 19.48C72.6975 18.976 73.0475 18.5933 73.5235 18.332C74.0088 18.0707 74.6108 17.94 75.3295 17.94V19.606C75.2548 19.5873 75.1848 19.578 75.1195 19.578C75.0541 19.5687 74.9888 19.564 74.9235 19.564C74.2608 19.564 73.7335 19.76 73.3415 20.152C72.9495 20.5347 72.7535 21.1087 72.7535 21.874V25.5H71.0035ZM80.8868 25.5V23.988L80.7888 23.666V21.02C80.7888 20.5067 80.6348 20.11 80.3268 19.83C80.0188 19.5407 79.5521 19.396 78.9268 19.396C78.5068 19.396 78.0915 19.4613 77.6808 19.592C77.2795 19.7227 76.9388 19.9047 76.6588 20.138L75.9728 18.864C76.3741 18.556 76.8501 18.3273 77.4008 18.178C77.9608 18.0193 78.5395 17.94 79.1368 17.94C80.2195 17.94 81.0548 18.2013 81.6428 18.724C82.2401 19.2373 82.5388 20.0353 82.5388 21.118V25.5H80.8868ZM78.5348 25.598C77.9748 25.598 77.4848 25.5047 77.0648 25.318C76.6448 25.122 76.3181 24.856 76.0848 24.52C75.8608 24.1747 75.7488 23.7873 75.7488 23.358C75.7488 22.938 75.8468 22.56 76.0428 22.224C76.2481 21.888 76.5795 21.622 77.0368 21.426C77.4941 21.23 78.1008 21.132 78.8568 21.132H81.0268V22.294H78.9828C78.3855 22.294 77.9841 22.392 77.7788 22.588C77.5735 22.7747 77.4708 23.008 77.4708 23.288C77.4708 23.6053 77.5968 23.8573 77.8488 24.044C78.1008 24.2307 78.4508 24.324 78.8988 24.324C79.3281 24.324 79.7108 24.226 80.0468 24.03C80.3921 23.834 80.6395 23.5447 80.7888 23.162L81.0828 24.212C80.9148 24.6507 80.6115 24.9913 80.1728 25.234C79.7435 25.4767 79.1975 25.598 78.5348 25.598ZM84.7847 25.5V18.024H86.4507V20.082L86.2547 19.48C86.4787 18.976 86.8287 18.5933 87.3047 18.332C87.7901 18.0707 88.3921 17.94 89.1107 17.94V19.606C89.0361 19.5873 88.9661 19.578 88.9007 19.578C88.8354 19.5687 88.7701 19.564 88.7047 19.564C88.0421 19.564 87.5147 19.76 87.1227 20.152C86.7307 20.5347 86.5347 21.1087 86.5347 21.874V25.5H84.7847ZM100.031 17.94C100.629 17.94 101.156 18.0567 101.613 18.29C102.08 18.5233 102.444 18.8827 102.705 19.368C102.967 19.844 103.097 20.46 103.097 21.216V25.5H101.347V21.44C101.347 20.7773 101.203 20.2827 100.913 19.956C100.624 19.6293 100.209 19.466 99.6673 19.466C99.2846 19.466 98.9439 19.55 98.6453 19.718C98.3559 19.886 98.1273 20.1333 97.9593 20.46C97.8006 20.7867 97.7213 21.202 97.7213 21.706V25.5H95.9713V21.44C95.9713 20.7773 95.8266 20.2827 95.5373 19.956C95.2479 19.6293 94.8326 19.466 94.2913 19.466C93.9086 19.466 93.5679 19.55 93.2693 19.718C92.9799 19.886 92.7513 20.1333 92.5833 20.46C92.4246 20.7867 92.3453 21.202 92.3453 21.706V25.5H90.5953V18.024H92.2613V20.012L91.9673 19.424C92.2193 18.9387 92.5833 18.57 93.0593 18.318C93.5446 18.066 94.0953 17.94 94.7113 17.94C95.4113 17.94 96.0179 18.1127 96.5313 18.458C97.0539 18.8033 97.3993 19.326 97.5673 20.026L96.8813 19.788C97.1239 19.228 97.5253 18.78 98.0853 18.444C98.6453 18.108 99.2939 17.94 100.031 17.94ZM108.861 25.598C108.031 25.598 107.303 25.4347 106.677 25.108C106.061 24.772 105.581 24.3147 105.235 23.736C104.899 23.1573 104.731 22.4993 104.731 21.762C104.731 21.0153 104.895 20.3573 105.221 19.788C105.557 19.2093 106.015 18.7567 106.593 18.43C107.181 18.1033 107.849 17.94 108.595 17.94C109.323 17.94 109.972 18.0987 110.541 18.416C111.111 18.7333 111.559 19.1813 111.885 19.76C112.212 20.3387 112.375 21.02 112.375 21.804C112.375 21.8787 112.371 21.9627 112.361 22.056C112.361 22.1493 112.357 22.238 112.347 22.322H106.117V21.16H111.423L110.737 21.524C110.747 21.0947 110.658 20.7167 110.471 20.39C110.285 20.0633 110.028 19.8067 109.701 19.62C109.384 19.4333 109.015 19.34 108.595 19.34C108.166 19.34 107.788 19.4333 107.461 19.62C107.144 19.8067 106.892 20.068 106.705 20.404C106.528 20.7307 106.439 21.118 106.439 21.566V21.846C106.439 22.294 106.542 22.6907 106.747 23.036C106.953 23.3813 107.242 23.6473 107.615 23.834C107.989 24.0207 108.418 24.114 108.903 24.114C109.323 24.114 109.701 24.0487 110.037 23.918C110.373 23.7873 110.672 23.582 110.933 23.302L111.871 24.38C111.535 24.772 111.111 25.0753 110.597 25.29C110.093 25.4953 109.515 25.598 108.861 25.598Z" fill="#252846"/>
</svg>
