<svg width="108" height="41" viewBox="0 0 108 41" fill="none" xmlns="http://www.w3.org/2000/svg">
<rect y="0.5" width="108" height="40" rx="20" fill="#5666BF"/>
<path d="M25.316 25.5V15.7H27.136V25.5H25.316ZM33.8607 17.94C34.458 17.94 34.99 18.0567 35.4567 18.29C35.9327 18.5233 36.306 18.8827 36.5767 19.368C36.8474 19.844 36.9827 20.46 36.9827 21.216V25.5H35.2327V21.44C35.2327 20.7773 35.074 20.2827 34.7567 19.956C34.4487 19.6293 34.0147 19.466 33.4547 19.466C33.044 19.466 32.68 19.55 32.3627 19.718C32.0454 19.886 31.798 20.138 31.6207 20.474C31.4527 20.8007 31.3687 21.216 31.3687 21.72V25.5H29.6187V18.024H31.2847V20.04L30.9907 19.424C31.252 18.948 31.63 18.584 32.1247 18.332C32.6287 18.0707 33.2074 17.94 33.8607 17.94ZM42.6044 28.314C41.9137 28.314 41.237 28.2207 40.5744 28.034C39.921 27.8567 39.3844 27.5953 38.9644 27.25L39.7484 25.934C40.075 26.2047 40.4857 26.4193 40.9804 26.578C41.4844 26.746 41.993 26.83 42.5064 26.83C43.3277 26.83 43.9297 26.6387 44.3124 26.256C44.695 25.8827 44.8864 25.318 44.8864 24.562V23.232L45.0264 21.538L44.9704 19.844V18.024H46.6364V24.366C46.6364 25.7193 46.291 26.7133 45.6004 27.348C44.9097 27.992 43.911 28.314 42.6044 28.314ZM42.3804 25.164C41.671 25.164 41.027 25.0147 40.4484 24.716C39.879 24.408 39.4264 23.9833 39.0904 23.442C38.7637 22.9007 38.6004 22.266 38.6004 21.538C38.6004 20.8193 38.7637 20.1893 39.0904 19.648C39.4264 19.1067 39.879 18.6867 40.4484 18.388C41.027 18.0893 41.671 17.94 42.3804 17.94C43.015 17.94 43.5844 18.066 44.0884 18.318C44.5924 18.57 44.9937 18.962 45.2924 19.494C45.6004 20.026 45.7544 20.7073 45.7544 21.538C45.7544 22.3687 45.6004 23.0547 45.2924 23.596C44.9937 24.128 44.5924 24.5247 44.0884 24.786C43.5844 25.038 43.015 25.164 42.3804 25.164ZM42.6464 23.68C43.085 23.68 43.477 23.5913 43.8224 23.414C44.1677 23.2273 44.4337 22.9753 44.6204 22.658C44.8164 22.3313 44.9144 21.958 44.9144 21.538C44.9144 21.118 44.8164 20.7493 44.6204 20.432C44.4337 20.1053 44.1677 19.858 43.8224 19.69C43.477 19.5127 43.085 19.424 42.6464 19.424C42.2077 19.424 41.811 19.5127 41.4564 19.69C41.111 19.858 40.8404 20.1053 40.6444 20.432C40.4577 20.7493 40.3644 21.118 40.3644 21.538C40.3644 21.958 40.4577 22.3313 40.6444 22.658C40.8404 22.9753 41.111 23.2273 41.4564 23.414C41.811 23.5913 42.2077 23.68 42.6464 23.68ZM48.9371 25.5V18.024H50.6031V20.082L50.4071 19.48C50.6311 18.976 50.9811 18.5933 51.4571 18.332C51.9424 18.0707 52.5444 17.94 53.2631 17.94V19.606C53.1884 19.5873 53.1184 19.578 53.0531 19.578C52.9877 19.5687 52.9224 19.564 52.8571 19.564C52.1944 19.564 51.6671 19.76 51.2751 20.152C50.8831 20.5347 50.6871 21.1087 50.6871 21.874V25.5H48.9371ZM58.1933 25.598C57.3626 25.598 56.6346 25.4347 56.0093 25.108C55.3933 24.772 54.9126 24.3147 54.5673 23.736C54.2313 23.1573 54.0633 22.4993 54.0633 21.762C54.0633 21.0153 54.2266 20.3573 54.5533 19.788C54.8893 19.2093 55.3466 18.7567 55.9253 18.43C56.5133 18.1033 57.1806 17.94 57.9273 17.94C58.6553 17.94 59.3039 18.0987 59.8733 18.416C60.4426 18.7333 60.8906 19.1813 61.2173 19.76C61.5439 20.3387 61.7073 21.02 61.7073 21.804C61.7073 21.8787 61.7026 21.9627 61.6933 22.056C61.6933 22.1493 61.6886 22.238 61.6793 22.322H55.4493V21.16H60.7553L60.0693 21.524C60.0786 21.0947 59.9899 20.7167 59.8033 20.39C59.6166 20.0633 59.3599 19.8067 59.0333 19.62C58.7159 19.4333 58.3473 19.34 57.9273 19.34C57.4979 19.34 57.1199 19.4333 56.7933 19.62C56.4759 19.8067 56.2239 20.068 56.0373 20.404C55.8599 20.7307 55.7713 21.118 55.7713 21.566V21.846C55.7713 22.294 55.8739 22.6907 56.0793 23.036C56.2846 23.3813 56.5739 23.6473 56.9473 23.834C57.3206 24.0207 57.7499 24.114 58.2353 24.114C58.6553 24.114 59.0333 24.0487 59.3693 23.918C59.7053 23.7873 60.0039 23.582 60.2653 23.302L61.2033 24.38C60.8673 24.772 60.4426 25.0753 59.9293 25.29C59.4253 25.4953 58.8466 25.598 58.1933 25.598ZM65.6982 25.598C65.0729 25.598 64.4709 25.5187 63.8922 25.36C63.3229 25.192 62.8702 24.9913 62.5342 24.758L63.2062 23.428C63.5422 23.6427 63.9436 23.82 64.4102 23.96C64.8769 24.1 65.3436 24.17 65.8102 24.17C66.3609 24.17 66.7576 24.0953 67.0002 23.946C67.2522 23.7967 67.3782 23.596 67.3782 23.344C67.3782 23.1387 67.2942 22.9847 67.1262 22.882C66.9582 22.77 66.7389 22.686 66.4682 22.63C66.1976 22.574 65.8942 22.5227 65.5582 22.476C65.2316 22.4293 64.9002 22.3687 64.5642 22.294C64.2376 22.21 63.9389 22.0933 63.6682 21.944C63.3976 21.7853 63.1782 21.5753 63.0102 21.314C62.8422 21.0527 62.7582 20.7073 62.7582 20.278C62.7582 19.802 62.8936 19.3913 63.1642 19.046C63.4349 18.6913 63.8129 18.4207 64.2982 18.234C64.7929 18.038 65.3762 17.94 66.0482 17.94C66.5522 17.94 67.0609 17.996 67.5742 18.108C68.0876 18.22 68.5122 18.3787 68.8482 18.584L68.1762 19.914C67.8216 19.6993 67.4622 19.5547 67.0982 19.48C66.7436 19.396 66.3889 19.354 66.0342 19.354C65.5022 19.354 65.1056 19.4333 64.8442 19.592C64.5922 19.7507 64.4662 19.9513 64.4662 20.194C64.4662 20.418 64.5502 20.586 64.7182 20.698C64.8862 20.81 65.1056 20.8987 65.3762 20.964C65.6469 21.0293 65.9456 21.0853 66.2722 21.132C66.6082 21.1693 66.9396 21.23 67.2662 21.314C67.5929 21.398 67.8916 21.5147 68.1622 21.664C68.4422 21.804 68.6662 22.0047 68.8342 22.266C69.0022 22.5273 69.0862 22.868 69.0862 23.288C69.0862 23.7547 68.9462 24.1607 68.6662 24.506C68.3956 24.8513 68.0082 25.122 67.5042 25.318C67.0002 25.5047 66.3982 25.598 65.6982 25.598ZM75.1993 25.5V23.988L75.1013 23.666V21.02C75.1013 20.5067 74.9473 20.11 74.6393 19.83C74.3313 19.5407 73.8646 19.396 73.2393 19.396C72.8193 19.396 72.404 19.4613 71.9933 19.592C71.592 19.7227 71.2513 19.9047 70.9713 20.138L70.2853 18.864C70.6866 18.556 71.1626 18.3273 71.7133 18.178C72.2733 18.0193 72.852 17.94 73.4493 17.94C74.532 17.94 75.3673 18.2013 75.9553 18.724C76.5526 19.2373 76.8513 20.0353 76.8513 21.118V25.5H75.1993ZM72.8473 25.598C72.2873 25.598 71.7973 25.5047 71.3773 25.318C70.9573 25.122 70.6306 24.856 70.3973 24.52C70.1733 24.1747 70.0613 23.7873 70.0613 23.358C70.0613 22.938 70.1593 22.56 70.3553 22.224C70.5606 21.888 70.892 21.622 71.3493 21.426C71.8066 21.23 72.4133 21.132 73.1693 21.132H75.3393V22.294H73.2953C72.698 22.294 72.2966 22.392 72.0913 22.588C71.886 22.7747 71.7833 23.008 71.7833 23.288C71.7833 23.6053 71.9093 23.8573 72.1613 24.044C72.4133 24.2307 72.7633 24.324 73.2113 24.324C73.6406 24.324 74.0233 24.226 74.3593 24.03C74.7046 23.834 74.952 23.5447 75.1013 23.162L75.3953 24.212C75.2273 24.6507 74.924 24.9913 74.4853 25.234C74.056 25.4767 73.51 25.598 72.8473 25.598ZM79.0972 25.5V18.024H80.7632V20.082L80.5672 19.48C80.7912 18.976 81.1412 18.5933 81.6172 18.332C82.1026 18.0707 82.7046 17.94 83.4232 17.94V19.606C83.3486 19.5873 83.2786 19.578 83.2132 19.578C83.1479 19.5687 83.0826 19.564 83.0172 19.564C82.3546 19.564 81.8272 19.76 81.4352 20.152C81.0432 20.5347 80.8472 21.1087 80.8472 21.874V25.5H79.0972Z" fill="white"/>
</svg>
