<svg width="176" height="57" viewBox="0 0 176 57" fill="none" xmlns="http://www.w3.org/2000/svg">
<path d="M78.4101 35.1295H66.6818L64.8307 41.0403H52.7627L53.4392 39.3539H61.6524L63.421 33.4457H77.8749L78.4101 35.1295ZM77.9458 5.23132H80.0052L94.3783 41.0402H82.0163L81.4807 39.3539H91.3664L77.9458 5.23132ZM72.8957 16.1693L69.7844 25.7045H65.975L71.2564 9.92911L72.8957 16.1693Z" fill="#FFE100"/>
<path d="M97.498 18.9028V2.72754H99.6409V9.37108H108.047V2.72754H110.189V18.9028H108.047V11.2801H99.6409V18.9028H97.498ZM112.758 13.043C112.758 10.8737 113.36 9.26559 114.569 8.22246C115.575 7.35613 116.803 6.91908 118.253 6.91908C119.865 6.91908 121.183 7.44649 122.203 8.50475C123.228 9.55913 123.736 11.0168 123.736 12.877C123.736 14.3875 123.51 15.5737 123.058 16.4361C122.606 17.3024 121.947 17.9725 121.085 18.4511C120.219 18.9292 119.277 19.1665 118.253 19.1665C116.614 19.1665 115.289 18.643 114.276 17.5886C113.263 16.5377 112.758 15.0238 112.758 13.043ZM114.799 13.043C114.799 14.5457 115.127 15.6675 115.782 16.4136C116.437 17.1628 117.262 17.5359 118.253 17.5359C119.24 17.5359 120.061 17.1593 120.716 16.4097C121.367 15.6601 121.695 14.5154 121.695 12.979C121.695 11.5287 121.367 10.4293 120.708 9.68362C120.049 8.9379 119.232 8.56483 118.253 8.56483C117.262 8.56483 116.437 8.9379 115.782 9.67973C115.127 10.4216 114.799 11.5438 114.799 13.043ZM125.273 15.4042L127.235 15.0956C127.344 15.8823 127.653 16.485 128.157 16.9069C128.658 17.3249 129.363 17.5359 130.271 17.5359C131.181 17.5359 131.86 17.3474 132.3 16.9782C132.741 16.6056 132.963 16.1685 132.963 15.6718C132.963 15.2196 132.767 14.8695 132.375 14.6096C132.104 14.4324 131.426 14.2102 130.346 13.9392C128.892 13.57 127.879 13.254 127.318 12.9825C126.756 12.7153 126.327 12.3422 126.037 11.868C125.747 11.3934 125.6 10.8698 125.6 10.2975C125.6 9.77396 125.721 9.29195 125.962 8.84755C126.199 8.39926 126.527 8.03008 126.937 7.73655C127.246 7.51046 127.668 7.31462 128.199 7.15641C128.734 6.99818 129.306 6.91907 129.916 6.91907C130.835 6.91907 131.641 7.05482 132.338 7.31852C133.035 7.58222 133.547 7.93973 133.878 8.39148C134.21 8.84756 134.436 9.45018 134.56 10.2067L132.62 10.4743C132.53 9.87167 132.274 9.40089 131.852 9.06197C131.43 8.72305 130.831 8.55359 130.06 8.55359C129.148 8.55359 128.496 8.70403 128.109 9.00534C127.717 9.30709 127.521 9.66114 127.521 10.064C127.521 10.3239 127.604 10.5534 127.766 10.7605C127.927 10.9753 128.18 11.1487 128.527 11.2918C128.726 11.3631 129.31 11.5326 130.281 11.7963C131.686 12.1728 132.665 12.478 133.219 12.7188C133.776 12.9561 134.213 13.3063 134.53 13.7619C134.846 14.218 135.004 14.783 135.004 15.4608C135.004 16.1236 134.808 16.7448 134.424 17.3323C134.036 17.9163 133.479 18.368 132.752 18.6884C132.025 19.0083 131.2 19.1665 130.281 19.1665C128.756 19.1665 127.596 18.8501 126.798 18.2176C125.999 17.5847 125.491 16.6471 125.273 15.4042ZM137.365 23.3918V7.18669H139.173V8.70794C139.599 8.1131 140.081 7.66481 140.619 7.36738C141.154 7.06996 141.806 6.91909 142.57 6.91909C143.572 6.91909 144.453 7.17933 145.218 7.69118C145.986 8.20734 146.562 8.93403 146.95 9.87169C147.342 10.8093 147.537 11.8378 147.537 12.9561C147.537 14.154 147.323 15.2348 146.89 16.1953C146.461 17.1555 145.835 17.8899 145.014 18.4022C144.193 18.9102 143.331 19.1665 142.427 19.1665C141.764 19.1665 141.173 19.0273 140.646 18.7485C140.118 18.4697 139.689 18.1156 139.35 17.6902V23.3918L137.365 23.3918ZM139.162 13.1105C139.162 14.617 139.467 15.7319 140.077 16.4547C140.687 17.1745 141.429 17.5359 142.295 17.5359C143.176 17.5359 143.934 17.1628 144.562 16.4136C145.191 15.6675 145.508 14.5115 145.508 12.9449C145.508 11.45 145.199 10.3351 144.585 9.5894C143.971 8.84757 143.237 8.4745 142.386 8.4745C141.538 8.4745 140.789 8.87005 140.137 9.66116C139.486 10.4518 139.162 11.6043 139.162 13.1105ZM149.941 5.01353V2.72754H151.929V5.01353H149.941ZM149.941 18.9028V7.18672H151.929V18.9028H149.941ZM159.288 17.1252L159.574 18.8804C159.017 18.9971 158.516 19.0572 158.075 19.0572C157.352 19.0572 156.795 18.9443 156.396 18.7148C156 18.4887 155.722 18.1874 155.56 17.8147C155.397 17.4451 155.314 16.6622 155.314 15.4721V8.73086H153.857V7.1867H155.314V4.28296L157.292 3.09284V7.18671H159.288V8.73087H157.292V15.5811C157.292 16.15 157.326 16.5114 157.393 16.6735C157.465 16.8356 157.578 16.9635 157.736 17.0612C157.894 17.1555 158.12 17.2043 158.414 17.2043C158.637 17.2043 158.926 17.178 159.288 17.1252ZM168.876 17.4568C168.138 18.0819 167.43 18.5224 166.753 18.7822C166.07 19.0386 165.34 19.1665 164.56 19.1665C163.273 19.1665 162.286 18.854 161.593 18.225C160.904 17.596 160.557 16.7902 160.557 15.8145C160.557 15.2382 160.685 14.7147 160.949 14.2405C161.209 13.7658 161.551 13.3854 161.973 13.0992C162.399 12.8131 162.873 12.5947 163.404 12.4478C163.792 12.3462 164.38 12.2446 165.167 12.1503C166.771 11.958 167.953 11.7323 168.711 11.4647C168.718 11.1937 168.722 11.0203 168.722 10.949C168.722 10.1393 168.534 9.5665 168.157 9.23925C167.652 8.78707 166.895 8.56487 165.897 8.56487C164.963 8.56487 164.274 8.72698 163.826 9.05466C163.382 9.38234 163.054 9.96205 162.839 10.7947L160.9 10.5271C161.077 9.69878 161.367 9.0244 161.77 8.51602C162.173 8.00374 162.76 7.60862 163.525 7.33368C164.289 7.05874 165.174 6.91911 166.184 6.91911C167.185 6.91911 167.995 7.03972 168.621 7.27316C169.246 7.51049 169.705 7.80445 170.003 8.16196C170.296 8.5199 170.5 8.96776 170.62 9.51419C170.684 9.85311 170.718 10.4631 170.718 11.3441V13.9919C170.718 15.8409 170.76 17.0085 170.846 17.4944C170.929 17.9838 171.098 18.4545 171.347 18.9028H169.272C169.068 18.4926 168.933 18.0101 168.876 17.4568ZM168.711 13.0201C167.988 13.318 166.907 13.5666 165.468 13.7736C164.651 13.8903 164.071 14.0222 163.736 14.1692C163.397 14.3157 163.133 14.5306 162.952 14.8168C162.768 15.099 162.674 15.4116 162.674 15.7583C162.674 16.2892 162.877 16.7297 163.276 17.0837C163.675 17.4339 164.263 17.6111 165.035 17.6111C165.799 17.6111 166.481 17.4451 167.076 17.1105C167.671 16.7751 168.112 16.3155 168.391 15.7358C168.605 15.2875 168.711 14.6244 168.711 13.7507V13.0201ZM173.754 18.9028V2.72758H175.738V18.9028H173.754Z" fill="#1F1A17"/>
<path d="M14.7734 54.9637V48.3236H18.2379C19.0195 48.3236 19.6169 48.356 20.0293 48.4196C20.6051 48.506 21.0971 48.6651 21.5047 48.8942C22.0339 49.1908 22.432 49.5682 22.6944 50.0286C22.959 50.4894 23.0904 51.0151 23.0904 51.6073C23.0904 52.1114 23.0009 52.558 22.8211 52.9475C22.643 53.3374 22.416 53.6603 22.1346 53.9154C21.8562 54.1704 21.5514 54.3715 21.219 54.5167C20.8887 54.6637 20.4884 54.7748 20.0198 54.8509C19.549 54.9265 19.0104 54.9637 18.4039 54.9637L14.7734 54.9637ZM16.1036 54.1799H18.2513C18.9144 54.1799 19.4366 54.1397 19.8136 54.0576C20.1906 53.9755 20.4901 53.8613 20.7154 53.7126C21.0314 53.506 21.2774 53.2246 21.4533 52.8735C21.6288 52.5212 21.7179 52.0958 21.7179 51.5935C21.7179 50.8992 21.5445 50.3658 21.2 49.9931C20.8533 49.6192 20.4344 49.3702 19.9403 49.2435C19.5841 49.1523 19.0082 49.1074 18.2189 49.1074H16.1036L16.1036 54.1799ZM32.2888 53.4148L33.565 53.5181C33.3635 54.0114 32.9913 54.3931 32.4479 54.665C31.9019 54.9356 31.2068 55.0718 30.3612 55.0718C29.2952 55.0718 28.4496 54.8552 27.8267 54.4225C27.2016 53.9897 26.8903 53.3819 26.8903 52.5999C26.8903 51.7898 27.2063 51.1621 27.8362 50.7151C28.4686 50.2685 29.2861 50.0442 30.2929 50.0442C31.2673 50.0442 32.0636 50.2638 32.6796 50.7012C33.2978 51.1387 33.6073 51.7556 33.6073 52.5489C33.6073 52.5982 33.6048 52.6708 33.6 52.7668H28.1665C28.2114 53.2955 28.4384 53.7005 28.846 53.9802C29.2533 54.2616 29.759 54.4021 30.3677 54.4021C30.8199 54.4021 31.2068 54.3235 31.5276 54.1657C31.8483 54.0096 32.1012 53.7593 32.2888 53.4148ZM28.2343 52.0958H32.3027C32.2486 51.6921 32.0917 51.3877 31.8367 51.1867C31.4433 50.8729 30.9323 50.7151 30.3072 50.7151C29.7404 50.7151 29.2628 50.8405 28.8759 51.0907C28.4898 51.3415 28.2767 51.6769 28.2343 52.0958ZM42.431 54.9637V54.2569C41.8616 54.8012 41.0913 55.0718 40.1173 55.0718C39.6889 55.0718 39.2856 55.0177 38.9134 54.9097C38.5407 54.8012 38.2645 54.6637 38.0842 54.4999C37.9013 54.3343 37.7751 54.1333 37.7025 53.8951C37.6536 53.7347 37.6277 53.4809 37.6277 53.1334V50.154H38.8615V52.8208C38.8615 53.2475 38.8874 53.5337 38.9367 53.6819C39.0162 53.8968 39.1801 54.0637 39.4308 54.1873C39.6841 54.3096 39.9954 54.3697 40.3654 54.3697C40.7355 54.3697 41.0822 54.3083 41.4077 54.183C41.7332 54.0576 41.9623 53.886 42.0959 53.6711C42.2321 53.4545 42.3 53.1407 42.3 52.7313V50.154H43.5342V54.9637H42.431ZM50.7047 54.234L50.8824 54.9542C50.5361 55.0022 50.2244 55.0268 49.9504 55.0268C49.5008 55.0268 49.1541 54.9806 48.9059 54.8863C48.6599 54.7938 48.4866 54.6697 48.3859 54.5167C48.2851 54.3654 48.2337 54.0438 48.2337 53.5553V50.7877H47.3272V50.154H48.2337V48.9621L49.4636 48.4736V50.154H50.7047V50.7877H49.4636V53.5998C49.4636 53.8337 49.4843 53.982 49.5267 54.0485C49.5712 54.1151 49.6413 54.1674 49.7398 54.2076C49.838 54.2461 49.9785 54.2664 50.1613 54.2664C50.2992 54.2664 50.4799 54.2556 50.7047 54.234ZM53.9564 53.5276L55.1768 53.4005C55.2447 53.7239 55.4371 53.9711 55.7509 54.1441C56.0622 54.3157 56.5005 54.4021 57.0647 54.4021C57.6314 54.4021 58.0529 54.3252 58.327 54.1735C58.6011 54.0204 58.7394 53.841 58.7394 53.637C58.7394 53.4515 58.6175 53.3076 58.3737 53.2012C58.2051 53.1286 57.7836 53.0374 57.1114 52.9259C56.2074 52.7746 55.5771 52.6449 55.2283 52.5333C54.8794 52.4235 54.6127 52.2705 54.4324 52.0755C54.2521 51.881 54.1605 51.6661 54.1605 51.431C54.1605 51.2161 54.2357 51.0181 54.3853 50.8357C54.5327 50.652 54.7367 50.5002 54.9922 50.3796C55.1842 50.2871 55.4466 50.2067 55.7764 50.1414C56.1089 50.0766 56.4651 50.0442 56.8442 50.0442C57.4157 50.0442 57.9172 50.0999 58.3507 50.208C58.7835 50.3165 59.1021 50.4635 59.3087 50.6485C59.5141 50.8357 59.655 51.083 59.7324 51.3938L58.5263 51.5036C58.4696 51.2563 58.3105 51.0631 58.0481 50.9239C57.7857 50.7847 57.4135 50.7151 56.9337 50.7151C56.3669 50.7151 55.9619 50.7769 55.7202 50.9005C55.4768 51.0242 55.3549 51.1694 55.3549 51.335C55.3549 51.4418 55.4064 51.536 55.5071 51.6212C55.6078 51.7094 55.7652 51.7803 55.9805 51.8391C56.1045 51.8685 56.4672 51.9381 57.0716 52.0466C57.9453 52.2009 58.5544 52.3263 58.8985 52.4248C59.2452 52.5225 59.5171 52.6665 59.7134 52.8532C59.9105 53.0404 60.0086 53.2721 60.0086 53.5505C60.0086 53.8229 59.8867 54.0775 59.6481 54.3192C59.4064 54.5587 59.0601 54.7441 58.608 54.8755C58.1562 55.0069 57.6431 55.0718 57.0716 55.0718C56.1231 55.0718 55.4016 54.9421 54.9049 54.6823C54.4086 54.4225 54.0926 54.0377 53.9564 53.5276ZM68.7691 53.2012L69.9822 53.3063C69.8507 53.8583 69.5114 54.2911 68.9637 54.6036C68.4177 54.9157 67.7454 55.0718 66.9492 55.0718C65.954 55.0718 65.1504 54.8569 64.5464 54.4272C63.9399 53.9971 63.6352 53.3806 63.6352 52.5766C63.6352 52.0574 63.7661 51.6026 64.0264 51.2131C64.2884 50.8236 64.6843 50.5314 65.2182 50.3364C65.7504 50.1414 66.331 50.0442 66.9565 50.0442C67.748 50.0442 68.3965 50.1773 68.8975 50.4414C69.4016 50.706 69.7249 51.0799 69.8672 51.5671L68.6658 51.6891C68.5513 51.3661 68.3498 51.1232 68.0593 50.9593C67.7692 50.7972 67.4178 50.7151 67.0054 50.7151C66.3824 50.7151 65.8762 50.8621 65.4876 51.1573C65.0989 51.4509 64.9048 51.9164 64.9048 52.5532C64.9048 53.1995 65.092 53.6694 65.469 53.9634C65.8438 54.2556 66.3331 54.4021 66.9375 54.4021C67.4225 54.4021 67.825 54.3036 68.1505 54.1073C68.476 53.9106 68.6822 53.6093 68.7691 53.2012ZM73.5784 54.9637V48.3236H74.8126V50.706C75.3889 50.2651 76.1169 50.0442 76.9953 50.0442C77.534 50.0442 78.0026 50.1155 78.4007 50.256C78.7989 50.3952 79.0846 50.5902 79.2554 50.8374C79.4261 51.0847 79.513 51.4448 79.513 51.9147V54.9637H78.2766V51.9147C78.2766 51.5084 78.1431 51.2114 77.8763 51.0259C77.6087 50.8405 77.2296 50.7462 76.7398 50.7462C76.375 50.7462 76.0304 50.8093 75.7075 50.9347C75.3842 51.0601 75.1546 51.23 75.0189 51.4448C74.8805 51.6584 74.8126 51.9554 74.8126 52.3323V54.9637L73.5784 54.9637ZM88.9181 53.4148L90.1942 53.5181C89.9928 54.0114 89.6206 54.3931 89.0772 54.665C88.5316 54.9356 87.8361 55.0718 86.9905 55.0718C85.9249 55.0718 85.0793 54.8552 84.4559 54.4225C83.8308 53.9897 83.5196 53.3819 83.5196 52.5999C83.5196 51.7898 83.8356 51.1621 84.4654 50.7151C85.0979 50.2685 85.9154 50.0442 86.9222 50.0442C87.8966 50.0442 88.6933 50.2638 89.3089 50.7012C89.9271 51.1387 90.2362 51.7556 90.2362 52.5489C90.2362 52.5982 90.234 52.6708 90.2293 52.7668H84.7957C84.8407 53.2955 85.0676 53.7005 85.4753 53.9802C85.8825 54.2617 86.3883 54.4021 86.997 54.4021C87.4492 54.4021 87.8361 54.3235 88.1568 54.1657C88.4776 54.0096 88.7309 53.7593 88.9181 53.4148ZM84.864 52.0958H88.9319C88.8779 51.6921 88.721 51.3877 88.4659 51.1867C88.0725 50.8729 87.562 50.7151 86.9364 50.7151C86.3697 50.7151 85.892 50.8405 85.5051 51.0907C85.1191 51.3415 84.9059 51.6769 84.864 52.0958ZM93.7905 53.5276L95.0109 53.4005C95.0788 53.7239 95.2707 53.9712 95.5846 54.1441C95.8963 54.3157 96.3342 54.4021 96.8988 54.4021C97.4655 54.4021 97.887 54.3252 98.1611 54.1735C98.4352 54.0204 98.5735 53.841 98.5735 53.637C98.5735 53.4515 98.4516 53.3076 98.2078 53.2012C98.0392 53.1286 97.6172 53.0374 96.9454 52.9259C96.0415 52.7746 95.4112 52.6449 95.0624 52.5333C94.7135 52.4235 94.4463 52.2705 94.2665 52.0755C94.0858 51.881 93.9946 51.6661 93.9946 51.431C93.9946 51.2161 94.0694 51.0181 94.2194 50.8357C94.3668 50.652 94.5708 50.5002 94.8259 50.3796C95.0183 50.2871 95.2802 50.2067 95.6105 50.1414C95.9429 50.0766 96.2992 50.0442 96.6783 50.0442C97.2498 50.0442 97.7513 50.0999 98.1844 50.208C98.6176 50.3165 98.9362 50.4635 99.1424 50.6485C99.3482 50.8357 99.4891 51.083 99.5665 51.3938L98.3604 51.5036C98.3037 51.2563 98.1446 51.0631 97.8822 50.9239C97.6198 50.7847 97.2476 50.7151 96.7673 50.7151C96.201 50.7151 95.7955 50.7769 95.5543 50.9006C95.3109 51.0242 95.189 51.1694 95.189 51.335C95.189 51.4418 95.2405 51.536 95.3412 51.6212C95.4419 51.7094 95.5988 51.7803 95.8141 51.8391C95.9382 51.8685 96.3013 51.9381 96.9057 52.0466C97.7794 52.2009 98.388 52.3263 98.7326 52.4248C99.0793 52.5225 99.3507 52.6665 99.5474 52.8532C99.7446 53.0404 99.8427 53.2721 99.8427 53.5505C99.8427 53.8229 99.7208 54.0775 99.4817 54.3192C99.2405 54.5587 98.8938 54.7441 98.4421 54.8755C97.9899 55.0069 97.4772 55.0718 96.9057 55.0718C95.9572 55.0718 95.2357 54.9421 94.739 54.6823C94.2427 54.4225 93.9267 54.0377 93.7905 53.5276ZM109.316 54.9637V48.3236H110.649V51.051H115.876V48.3236H117.209V54.9637H115.876V51.8343H110.649V54.9637H109.316ZM121.344 52.558C121.344 51.6674 121.719 51.0073 122.47 50.5793C123.096 50.2236 123.859 50.0442 124.761 50.0442C125.763 50.0442 126.583 50.2607 127.218 50.6952C127.855 51.1279 128.171 51.7262 128.171 52.4901C128.171 53.11 128.03 53.5968 127.749 53.9508C127.469 54.3066 127.058 54.5816 126.522 54.7778C125.983 54.9745 125.398 55.0718 124.761 55.0718C123.742 55.0718 122.918 54.8569 122.288 54.4242C121.658 53.9928 121.344 53.3711 121.344 52.558ZM122.613 52.558C122.613 53.1749 122.817 53.6357 123.224 53.9418C123.632 54.2496 124.145 54.4021 124.761 54.4021C125.375 54.4021 125.885 54.2478 126.292 53.94C126.698 53.6327 126.901 53.1623 126.901 52.532C126.901 51.9363 126.698 51.485 126.288 51.1789C125.878 50.8729 125.37 50.7198 124.761 50.7198C124.145 50.7198 123.632 50.8729 123.224 51.1776C122.817 51.482 122.613 51.9428 122.613 52.558ZM131.664 53.5276L132.884 53.4005C132.952 53.7239 133.145 53.9711 133.459 54.1441C133.77 54.3157 134.208 54.4021 134.772 54.4021C135.339 54.4021 135.761 54.3252 136.035 54.1735C136.309 54.0204 136.447 53.841 136.447 53.637C136.447 53.4515 136.325 53.3076 136.081 53.2012C135.913 53.1286 135.491 53.0374 134.819 52.9259C133.915 52.7745 133.285 52.6449 132.936 52.5333C132.587 52.4235 132.32 52.2705 132.14 52.0755C131.959 51.881 131.868 51.6661 131.868 51.431C131.868 51.2161 131.943 51.0181 132.093 50.8357C132.24 50.652 132.444 50.5002 132.699 50.3796C132.892 50.2871 133.154 50.2067 133.484 50.1414C133.817 50.0766 134.173 50.0442 134.552 50.0442C135.123 50.0442 135.625 50.0999 136.058 50.208C136.491 50.3165 136.81 50.4635 137.016 50.6485C137.222 50.8357 137.363 51.083 137.44 51.3938L136.234 51.5036C136.177 51.2563 136.018 51.0631 135.756 50.9239C135.494 50.7847 135.121 50.7151 134.641 50.7151C134.075 50.7151 133.669 50.7769 133.428 50.9005C133.185 51.0242 133.063 51.1694 133.063 51.335C133.063 51.4418 133.114 51.536 133.215 51.6212C133.315 51.7094 133.472 51.7803 133.688 51.8391C133.812 51.8685 134.175 51.9381 134.779 52.0466C135.653 52.2009 136.262 52.3263 136.606 52.4248C136.953 52.5225 137.224 52.6665 137.421 52.8532C137.618 53.0404 137.716 53.2721 137.716 53.5505C137.716 53.8229 137.594 54.0775 137.355 54.3192C137.115 54.5587 136.768 54.7441 136.316 54.8755C135.863 55.0069 135.351 55.0718 134.779 55.0718C133.831 55.0718 133.109 54.9421 132.613 54.6823C132.116 54.4225 131.8 54.0377 131.664 53.5276ZM141.722 56.8066V50.154H142.846V50.7786C143.111 50.5344 143.411 50.3507 143.746 50.2283C144.078 50.106 144.483 50.0442 144.959 50.0442C145.582 50.0442 146.13 50.1509 146.605 50.3615C147.083 50.5729 147.441 50.8716 147.683 51.2563C147.926 51.6415 148.048 52.0634 148.048 52.5225C148.048 53.0141 147.915 53.458 147.645 53.8518C147.378 54.2461 146.989 54.5478 146.479 54.7579C145.968 54.9667 145.432 55.0718 144.87 55.0718C144.458 55.0718 144.09 55.0147 143.762 54.9002C143.434 54.7856 143.167 54.6404 142.957 54.4657V56.8066L141.722 56.8066ZM142.839 52.5856C142.839 53.2043 143.029 53.6621 143.408 53.9586C143.788 54.2539 144.249 54.4022 144.788 54.4022C145.336 54.4022 145.807 54.2496 146.198 53.9418C146.589 53.6357 146.786 53.161 146.786 52.5178C146.786 51.9039 146.594 51.4465 146.212 51.1405C145.83 50.8357 145.374 50.6827 144.844 50.6827C144.317 50.6827 143.851 50.8452 143.446 51.1694C143.04 51.4945 142.839 51.9675 142.839 52.5856ZM152.08 49.2621V48.3236H153.317V49.2621H152.08ZM152.08 54.9637V50.154H153.317V54.9637H152.08ZM160.431 54.234L160.609 54.9542C160.262 55.0022 159.951 55.0268 159.677 55.0268C159.227 55.0268 158.88 54.9806 158.632 54.8863C158.386 54.7938 158.213 54.6697 158.112 54.5167C158.011 54.3654 157.96 54.0438 157.96 53.5553V50.7877H157.053V50.154H157.96V48.9621L159.19 48.4736V50.154H160.431V50.7877H159.19V53.5998C159.19 53.8337 159.211 53.982 159.253 54.0485C159.297 54.1151 159.367 54.1674 159.466 54.2076C159.564 54.2461 159.705 54.2664 159.888 54.2664C160.026 54.2664 160.206 54.2556 160.431 54.234ZM168.932 54.3697C168.473 54.6265 168.032 54.8076 167.611 54.914C167.187 55.0195 166.733 55.0718 166.248 55.0718C165.446 55.0718 164.833 54.9434 164.402 54.6853C163.974 54.4272 163.758 54.0961 163.758 53.6958C163.758 53.4593 163.837 53.2445 164.002 53.0495C164.163 52.855 164.376 52.6989 164.639 52.5813C164.903 52.4637 165.198 52.3742 165.529 52.3137C165.77 52.2722 166.135 52.2303 166.624 52.1918C167.623 52.1127 168.358 52.0202 168.829 51.9104C168.833 51.7989 168.836 51.728 168.836 51.6986C168.836 51.3661 168.718 51.131 168.484 50.9965C168.17 50.8111 167.7 50.7198 167.079 50.7198C166.498 50.7198 166.069 50.7864 165.791 50.9209C165.514 51.0553 165.311 51.2935 165.178 51.635L163.971 51.5252C164.081 51.1854 164.261 50.9083 164.512 50.7C164.763 50.4894 165.128 50.3273 165.604 50.2145C166.079 50.1017 166.629 50.0442 167.257 50.0442C167.88 50.0442 168.383 50.0939 168.772 50.1894C169.161 50.2871 169.447 50.4077 169.632 50.5547C169.815 50.7013 169.941 50.8854 170.016 51.1093C170.056 51.2485 170.077 51.4988 170.077 51.8607V52.9475C170.077 53.7066 170.103 54.186 170.156 54.3853C170.208 54.5863 170.314 54.7796 170.468 54.9637H169.177C169.051 54.7951 168.967 54.5971 168.932 54.3697ZM168.829 52.5489C168.379 52.6708 167.706 52.7728 166.812 52.858C166.304 52.906 165.943 52.96 165.734 53.0205C165.524 53.0806 165.36 53.1688 165.248 53.286C165.133 53.4022 165.074 53.5306 165.074 53.6729C165.074 53.8907 165.201 54.0714 165.449 54.2171C165.697 54.3607 166.063 54.4333 166.543 54.4333C167.018 54.4333 167.442 54.3654 167.812 54.2279C168.182 54.09 168.456 53.9016 168.629 53.6634C168.763 53.4796 168.829 53.2073 168.829 52.8489V52.5489ZM174.502 54.9637V48.3236H175.736V54.9637H174.502Z" fill="#1F1A17"/>
<path d="M103.214 39.0418L109.222 22.8665H111.45L117.851 39.0418H115.492L113.668 34.1421H107.128L105.413 39.0418H103.214ZM107.725 32.3982H113.03L111.396 27.9205C110.901 26.5609 110.529 25.4421 110.289 24.565C110.089 25.6042 109.808 26.6322 109.444 27.6568L107.725 32.3982ZM119.217 39.0418V22.8665H121.136V39.0418H119.217ZM131.866 35.2682L133.851 35.5203C133.538 36.7216 132.959 37.6519 132.114 38.3146C131.266 38.9739 130.184 39.3055 128.87 39.3055C127.213 39.3055 125.898 38.7781 124.93 37.7237C123.958 36.6693 123.474 35.1891 123.474 33.2836C123.474 31.3101 123.965 29.7811 124.945 28.6926C125.928 27.6041 127.199 27.0581 128.764 27.0581C130.279 27.0581 131.516 27.5928 132.474 28.6584C133.435 29.7245 133.916 31.2271 133.916 33.1591C133.916 33.2797 133.913 33.4565 133.905 33.6899H125.458C125.527 34.9782 125.88 35.9651 126.514 36.6464C127.147 37.332 127.934 37.6744 128.88 37.6744C129.583 37.6744 130.184 37.4825 130.683 37.0986C131.182 36.7182 131.575 36.1077 131.866 35.2682ZM125.563 32.0558H131.888C131.804 31.0728 131.561 30.331 131.164 29.8412C130.552 29.0769 129.758 28.6925 128.786 28.6925C127.905 28.6925 127.162 28.9973 126.561 29.6077C125.961 30.2177 125.629 31.0352 125.563 32.0558ZM136.265 39.0418V27.3256H137.98V28.9675C138.337 28.3951 138.81 27.9317 139.4 27.5855C139.989 27.2353 140.663 27.058 141.417 27.058C142.254 27.058 142.942 27.2387 143.478 27.6006C144.017 27.962 144.395 28.463 144.614 29.1106C145.513 27.7437 146.678 27.058 148.113 27.058C149.238 27.058 150.101 27.3818 150.705 28.026C151.31 28.6701 151.612 29.6605 151.612 30.9976V39.0418H149.704V31.6603C149.704 30.8657 149.642 30.2934 149.518 29.9428C149.391 29.5965 149.165 29.3142 148.841 29.0993C148.514 28.8884 148.127 28.779 147.687 28.779C146.89 28.779 146.231 29.054 145.703 29.6038C145.178 30.1498 144.912 31.0274 144.912 32.2326V39.0418H142.993V31.4307C142.993 30.5454 142.837 29.8827 142.524 29.4421C142.211 29.0016 141.701 28.779 140.987 28.779C140.449 28.779 139.95 28.926 139.491 29.2234C139.032 29.5174 138.697 29.9466 138.493 30.5116C138.285 31.0801 138.183 31.8976 138.183 32.9632V39.0417L136.265 39.0418ZM161.855 37.5957C161.141 38.2208 160.456 38.6613 159.801 38.9211C159.142 39.1771 158.436 39.3055 157.682 39.3055C156.437 39.3055 155.483 38.9925 154.813 38.3639C154.146 37.7349 153.811 36.9291 153.811 35.9534C153.811 35.3772 153.935 34.8537 154.19 34.3794C154.441 33.9048 154.773 33.5243 155.18 33.2382C155.592 32.952 156.051 32.7337 156.564 32.5867C156.939 32.4851 157.507 32.3835 158.268 32.2893C159.819 32.0969 160.962 31.8712 161.695 31.6036C161.702 31.3326 161.706 31.1592 161.706 31.0879C161.706 30.2782 161.523 29.7054 161.159 29.3782C160.671 28.926 159.939 28.7038 158.975 28.7038C158.071 28.7038 157.405 28.8659 156.972 29.1936C156.542 29.5208 156.225 30.101 156.018 30.9336L154.143 30.666C154.314 29.8373 154.594 29.1633 154.984 28.6549C155.373 28.1427 155.942 27.7471 156.68 27.4726C157.42 27.1977 158.275 27.058 159.251 27.058C160.22 27.058 161.003 27.1786 161.607 27.4121C162.211 27.6494 162.656 27.9429 162.943 28.3009C163.227 28.6584 163.424 29.1067 163.541 29.6531C163.602 29.992 163.635 30.602 163.635 31.483V34.1308C163.635 35.9798 163.675 37.1474 163.759 37.6333C163.839 38.1227 164.003 38.5935 164.243 39.0417H162.237C162.04 38.6315 161.909 38.1491 161.855 37.5957ZM161.695 33.159C160.995 33.4565 159.95 33.705 158.559 33.9125C157.769 34.0293 157.208 34.1611 156.885 34.3077C156.557 34.4546 156.302 34.6691 156.127 34.9557C155.949 35.238 155.858 35.5505 155.858 35.8968C155.858 36.4281 156.054 36.8686 156.44 37.2226C156.826 37.5728 157.394 37.7501 158.141 37.7501C158.88 37.7501 159.539 37.5841 160.114 37.249C160.69 36.914 161.115 36.4545 161.385 35.8743C161.592 35.4265 161.695 34.7633 161.695 33.8896V33.159ZM157.959 25.8679L159.378 22.78H161.894L159.55 25.8679H157.959ZM166.613 39.0418V27.3256H168.34V28.99C169.173 27.7022 170.375 27.0581 171.944 27.0581C172.629 27.0581 173.255 27.186 173.827 27.4385C174.402 27.6944 174.828 28.026 175.112 28.4401C175.399 28.8508 175.596 29.3406 175.713 29.9052C175.782 30.2743 175.818 30.9185 175.818 31.8371V39.0418H173.896V31.9123C173.896 31.1065 173.823 30.5 173.674 30.0971C173.525 29.6981 173.259 29.3782 172.88 29.1409C172.498 28.8996 172.053 28.779 171.54 28.779C170.721 28.779 170.018 29.0505 169.421 29.5853C168.827 30.1235 168.532 31.1402 168.532 32.6429V39.0418L166.613 39.0418Z" fill="#1F1A17"/>
<path d="M18.5596 5.20423L27.8972 18.6137L29.8659 17.7357H40.1446V26.5316H38.9152V25.9826H26.7205V25.9822H38.7488V25.1154H26.7205V24.0399H18.5596L18.5596 5.20423ZM26.7205 28.6456H29.8659V41.0136H18.5596V39.3618H26.7205L26.7205 28.6456ZM50.5911 5.20423H53.5856V41.0136H42.2283V39.3618H50.5911L50.5911 5.20423Z" fill="#FFE100"/>
<path d="M12.2217 0.576912H23.528V2.29789H14.1817V14.8518H12.2217L12.2217 0.576912ZM14.1817 36.3863H12.2217V25.9333H14.1817V36.3863Z" fill="#DA251D"/>
<path fill-rule="evenodd" clip-rule="evenodd" d="M0.31543 12.9989H14.1814V14.8517H2.27549V23.9646H0.315455L0.31543 12.9989ZM25.4877 12.9989H35.7738V14.8517H25.4877V12.9989Z" fill="#DA251D"/>
<path d="M76.4054 32.844H62.9489L61.0973 38.7496H49.0293L63.3937 2.97351H76.2719L90.6449 38.7496H78.2833L76.4054 32.844ZM73.931 25.1059L69.7039 12.2446L65.5029 25.1059H73.931Z" fill="#1F1A17"/>
<path fill-rule="evenodd" clip-rule="evenodd" d="M26.7197 25.1154H38.7495V25.9921L26.7223 26.1832L26.7219 26.9833L38.7495 26.9786V28.6836H26.7197V25.1154Z" fill="#FFE100"/>
<path d="M14.8281 2.94678H26.1344V15.4778H38.497V2.94678H49.8543V38.7557H38.497V24.2738H26.1344V38.7557H14.8281V2.94678Z" fill="#1F1A17"/>
<path d="M41.0822 15.3683H2.92188V26.3339H41.0822V15.3683Z" fill="#1F1A17"/>
</svg>
