<svg width="176" height="67" viewBox="0 0 176 67" fill="none" xmlns="http://www.w3.org/2000/svg">
<path d="M43.498 3.02673H54.3453V15.3468H66.2061V3.02673H76.6674C70.8875 6.65746 67.043 13.1001 67.043 20.4415C67.043 27.9664 71.0814 34.545 77.1026 38.1211V38.2312H66.2061V23.9938H54.3453V38.2312H43.498V3.02673ZM98.3793 3.02673H120.999C124.383 3.02673 126.981 3.87347 128.789 5.55186C130.601 7.23365 131.511 9.31375 131.511 11.7891C131.511 13.8711 130.865 15.658 129.574 17.1495C128.707 18.1413 127.448 18.9285 125.789 19.502C128.307 20.1084 130.162 21.1578 131.356 22.6335C132.541 24.1171 133.138 25.9771 133.138 28.2151C133.138 30.0431 132.713 31.6822 131.871 33.141C131.021 34.6004 129.868 35.7475 128.396 36.6002C127.489 37.1248 126.115 37.5088 124.277 37.7477C121.833 38.0657 120.214 38.2312 119.413 38.2312H97.7581C103.882 34.6803 108.005 28.0436 108.005 20.4415C108.005 13.1001 104.159 6.65746 98.3793 3.02673ZM111.631 16.8382H116.347C118.04 16.8382 119.217 16.5432 119.887 15.961C120.549 15.3712 120.876 14.5268 120.876 13.4283C120.876 12.4041 120.549 11.6007 119.887 11.0264C119.217 10.445 118.064 10.1582 116.421 10.1582H111.631V16.8382ZM111.631 30.666H117.165C119.037 30.666 120.353 30.3377 121.113 29.6738C121.881 29.0102 122.266 28.1167 122.266 26.9938C122.266 25.9526 121.89 25.1172 121.129 24.4856C120.37 23.8544 119.045 23.5349 117.14 23.5349H111.631V30.666Z" fill="#004890"/>
<path d="M93.4892 3.09546H81.5586V37.7884H93.4892V3.09546Z" fill="#EC0928"/>
<path d="M70.2246 14.4607L70.2246 26.4237L104.823 26.4237L104.823 14.4607L70.2246 14.4607Z" fill="#EC0928"/>
<path d="M7.56504 46.8274V51.8591H11.5726V46.8274H15.0049V60.0054H11.5726V54.4988H7.56504V60.0054H4.13281V46.8274H7.56504ZM22.4075 52.3147C21.8017 52.3147 21.3037 52.5653 20.9144 53.065C20.5243 53.565 20.33 54.2456 20.33 55.1063C20.33 55.9669 20.5277 56.6441 20.9234 57.1377C21.3195 57.6318 21.8141 57.8786 22.4075 57.8786C23.0264 57.8786 23.527 57.6348 23.9103 57.1475C24.294 56.6599 24.4861 55.9798 24.4861 55.1063C24.4861 54.2332 24.294 53.5492 23.9103 53.0556C23.527 52.5619 23.0264 52.3147 22.4075 52.3147ZM22.4075 49.9791C23.2733 49.9791 24.0468 50.0963 24.727 50.3307C25.4075 50.5647 25.9822 50.9035 26.4523 51.3463C26.922 51.7898 27.2809 52.3305 27.5286 52.97C27.7759 53.6091 27.8991 54.3277 27.8991 55.1255C27.8991 55.9229 27.7759 56.6415 27.5286 57.2806C27.2809 57.9197 26.922 58.4578 26.4523 58.8945C25.9822 59.3313 25.4075 59.6666 24.727 59.901C24.0468 60.135 23.2733 60.2522 22.4075 60.2522C20.6761 60.2522 19.3311 59.8027 18.3728 58.9039C17.4134 58.0052 16.9346 56.7458 16.9346 55.1255C16.9346 54.3277 17.0583 53.6091 17.3056 52.97C17.5532 52.3306 17.9121 51.7898 18.3819 51.3463C18.8516 50.9035 19.4236 50.5647 20.0982 50.3307C20.772 50.0963 21.542 49.9791 22.4075 49.9791ZM36.4897 52.8468C35.587 52.3275 34.7211 52.0683 33.8921 52.0683C33.4844 52.0683 33.1747 52.144 32.965 52.2963C32.7542 52.4477 32.6489 52.6505 32.6489 52.9037C32.6489 53.0684 32.6955 53.198 32.7887 53.293C32.8812 53.3875 33.0139 53.4701 33.1878 53.5398C33.3607 53.6091 33.5678 53.6792 33.8091 53.7485C34.0503 53.8179 34.325 53.8974 34.6339 53.986C35.1045 54.1254 35.5096 54.2803 35.8501 54.4513C36.1902 54.622 36.4713 54.8214 36.6937 55.0494C36.9166 55.277 37.0831 55.546 37.1947 55.8561C37.3059 56.1667 37.3615 56.5303 37.3615 56.9482C37.3615 57.9735 36.9786 58.7837 36.2116 59.3787C35.4449 59.9738 34.3558 60.2711 32.9462 60.2711C31.7711 60.2711 30.6331 60.0876 29.5324 59.7205L29.7368 57.2139C30.6639 57.7075 31.635 57.9543 32.649 57.9543C33.6264 57.9543 34.115 57.6887 34.115 57.157C34.115 56.9798 34.0688 56.837 33.9756 56.73C33.8831 56.6222 33.7504 56.5273 33.5768 56.4451C33.4036 56.3626 33.1901 56.2835 32.9368 56.2077C32.6835 56.1316 32.3957 56.0431 32.0744 55.9417C31.629 55.7898 31.2397 55.6319 30.9052 55.4673C30.5715 55.3026 30.293 55.1157 30.0706 54.9069C29.8477 54.6978 29.6812 54.4543 29.5696 54.1759C29.4584 53.8974 29.4024 53.5745 29.4024 53.2074C29.4024 52.2069 29.7857 51.419 30.5527 50.8432C31.3197 50.2674 32.4325 49.9791 33.8921 49.9791C34.8328 49.9791 35.8031 50.1502 36.805 50.492L36.4897 52.8468ZM42.3898 63.9738H39.1244V50.2452H42.0557V52.1059C42.427 51.4224 42.9062 50.8974 43.4939 50.53C44.0809 50.163 44.7458 49.9791 45.488 49.9791C46.1193 49.9791 46.6973 50.0963 47.2227 50.3307C47.7484 50.5647 48.2002 50.9035 48.5771 51.3463C48.9544 51.7898 49.2479 52.3245 49.4587 52.9512C49.6684 53.5775 49.7737 54.2832 49.7737 55.0682C49.7737 55.8531 49.6662 56.5653 49.449 57.2044C49.2325 57.8439 48.9356 58.3911 48.5587 58.8466C48.1814 59.3026 47.733 59.6538 47.2137 59.901C46.6939 60.1475 46.1313 60.2711 45.5248 60.2711C44.2016 60.2711 43.1565 59.7265 42.3898 58.6383L42.3898 63.9738ZM44.4304 52.4858C43.7995 52.4858 43.3019 52.7168 42.937 53.1788C42.5721 53.6408 42.3898 54.2901 42.3898 55.1255C42.3898 55.9481 42.5721 56.5872 42.937 57.0432C43.3019 57.4987 43.781 57.7267 44.3752 57.7267C44.981 57.7267 45.4695 57.4927 45.8405 57.0239C46.2118 56.5555 46.3974 55.8912 46.3974 55.0305C46.3974 54.2456 46.2178 53.6249 45.8593 53.1694C45.5004 52.7138 45.0242 52.4858 44.4304 52.4858ZM55.0804 50.2452V60.0054H51.8146V50.2452H55.0804ZM55.0804 45.7639V48.4794H51.8146V45.7639H55.0804ZM61.7408 50.2452H64.0787V52.6565H61.7408V56.0178C61.7408 56.739 61.8524 57.2489 62.0749 57.5462C62.2977 57.8439 62.6935 57.9924 63.2617 57.9924C63.3609 57.9924 63.4759 57.9799 63.6052 57.9543C63.7356 57.9291 63.893 57.8914 64.0787 57.8405L64.1343 60.0242C63.4413 60.1885 62.7795 60.2711 62.1489 60.2711C61.4935 60.2711 60.934 60.1885 60.4702 60.0242C60.0061 59.8596 59.6258 59.6097 59.3289 59.2743C59.032 58.9386 58.8155 58.5083 58.6795 57.9833C58.5435 57.4577 58.4754 56.8344 58.4754 56.1124V52.6565H56.6389V50.2452H58.6611V47.9853L61.7408 46.9223V50.2452ZM71.1476 55.5618C70.2194 55.5618 69.5361 55.6632 69.0972 55.8659C68.6583 56.0683 68.4388 56.4165 68.4388 56.9101C68.4388 57.2395 68.5504 57.5116 68.7725 57.7267C68.9954 57.9419 69.2979 58.0493 69.6816 58.0493C70.263 58.0493 70.7451 57.8533 71.1288 57.4611C71.5125 57.0684 71.7042 56.5303 71.7042 55.8467V55.5619L71.1476 55.5618ZM74.7839 60.0054L71.9451 60.002L71.871 58.4864C71.4757 59.0686 71.0018 59.4865 70.4516 59.7398C69.9014 59.993 69.249 60.1192 68.4944 60.1192C67.5169 60.1192 66.7443 59.8377 66.1749 59.2744C65.606 58.711 65.3219 57.9607 65.3219 57.0239C65.3219 55.9229 65.7394 55.1157 66.5741 54.6032C67.4091 54.0903 68.6925 53.8341 70.4238 53.8341H71.7042V53.7011C71.7042 53.1694 71.5061 52.7609 71.11 52.476C70.7147 52.1915 70.1333 52.0491 69.3663 52.0491C68.5993 52.0491 67.6597 52.3147 66.5466 52.8468L66.4906 50.6442C67.0476 50.4035 67.6346 50.2294 68.2531 50.122C68.8717 50.0142 69.5395 49.9607 70.2569 49.9607C71.8402 49.9607 72.9906 50.3594 73.708 51.1567C74.425 51.9545 74.7839 53.201 74.7839 54.8975V60.0054ZM80.3872 45.7639V60.0054H77.1214V45.7639H80.3872ZM91.9643 57.5748H93.3187C94.7411 57.5748 95.4521 57.0492 95.4521 55.9986C95.4521 54.986 94.7907 54.4796 93.4671 54.4796H91.9643V57.5748ZM91.9643 52.144H93.003C94.4502 52.144 95.174 51.6379 95.174 50.625C95.174 49.6758 94.5058 49.201 93.1698 49.201H91.9643V52.144ZM93.8752 46.8273C97.0046 46.8273 98.5691 47.9665 98.5691 50.2451C98.5691 51.7898 97.7648 52.7835 96.1571 53.2262C97.0478 53.4033 97.728 53.761 98.1981 54.2991C98.6683 54.8372 98.9028 55.5241 98.9028 56.3596C98.9028 57.6257 98.4668 58.5497 97.5953 59.1315C96.7227 59.7141 95.3961 60.0054 93.6152 60.0054H88.6061V46.8273L93.8752 46.8273ZM107.567 52.9798C107.406 52.9161 107.243 52.872 107.076 52.8468C106.909 52.8212 106.732 52.8087 106.547 52.8087C104.976 52.8087 104.191 53.8213 104.191 55.8467V60.0054H100.926V50.2452H103.838V52.1059C104.494 50.6883 105.465 49.9791 106.751 49.9791C106.887 49.9791 107.039 49.9919 107.206 50.0176C107.373 50.0428 107.549 50.0677 107.734 50.0933L107.567 52.9798ZM112.298 50.2452V60.0054H109.033V50.2452H112.298ZM112.298 45.7639V48.4793H109.033V45.7639H112.298ZM118.959 50.2452H121.297V52.6565H118.959V56.0178C118.959 56.739 119.07 57.2489 119.293 57.5462C119.516 57.8439 119.911 57.9924 120.48 57.9924C120.579 57.9924 120.694 57.9799 120.824 57.9543C120.954 57.929 121.111 57.8914 121.297 57.8405L121.353 60.0242C120.66 60.1885 119.998 60.271 119.367 60.271C118.711 60.271 118.152 60.1885 117.688 60.0242C117.224 59.8595 116.844 59.6097 116.547 59.2743C116.25 58.9386 116.034 58.5082 115.898 57.9833C115.762 57.4576 115.694 56.8344 115.694 56.1124V52.6565H113.857V50.2451H115.879V47.9853L118.959 46.9223V50.2452ZM128.366 55.5618C127.438 55.5618 126.754 55.6632 126.316 55.8659C125.876 56.0683 125.657 56.4165 125.657 56.9101C125.657 57.2395 125.768 57.5115 125.991 57.7267C126.214 57.9419 126.516 58.0493 126.9 58.0493C127.481 58.0493 127.963 57.8533 128.347 57.461C128.731 57.0684 128.922 56.5303 128.922 55.8467V55.5618H128.366ZM132.002 60.0054L129.163 60.002L129.089 58.4864C128.693 59.0686 128.22 59.4865 127.67 59.7397C127.12 59.993 126.467 60.1192 125.713 60.1192C124.735 60.1192 123.962 59.8377 123.393 59.2743C122.824 58.711 122.54 57.9607 122.54 57.0239C122.54 55.9228 122.957 55.1157 123.792 54.6032C124.627 54.0903 125.91 53.8341 127.642 53.8341H128.922V53.7011C128.922 53.1693 128.724 52.7609 128.328 52.476C127.932 52.1915 127.351 52.049 126.585 52.049C125.818 52.049 124.878 52.3147 123.765 52.8468L123.709 50.6442C124.266 50.4034 124.853 50.2293 125.471 50.1219C126.09 50.0142 126.757 49.9607 127.475 49.9607C129.058 49.9607 130.209 50.3593 130.926 51.1567C131.643 51.9545 132.002 53.201 132.002 54.8975L132.002 60.0054ZM130.239 45.5171L127.289 48.9538H125.898L127.642 45.5171H130.239ZM144.322 60.0054H141.075V54.9921C141.075 53.4735 140.537 52.7138 139.46 52.7138C138.916 52.7138 138.468 52.9384 138.115 53.3875C137.763 53.8371 137.587 54.4796 137.587 55.315V60.0054H134.321V50.2452H137.29V51.9921C137.661 51.3462 138.14 50.8496 138.728 50.5014C139.315 50.1536 139.986 49.9791 140.74 49.9791C141.903 49.9791 142.79 50.3435 143.403 51.0712C144.015 51.7992 144.322 52.872 144.322 54.29L144.322 60.0054ZM149.924 50.2452V60.0054H146.659V50.2452H149.924ZM149.924 45.7639V48.4793H146.659V45.7639H149.924ZM159.813 52.9414C159.17 52.5871 158.539 52.41 157.921 52.41C157.104 52.41 156.458 52.6538 155.982 53.1411C155.506 53.6283 155.268 54.29 155.268 55.1255C155.268 55.9353 155.518 56.5872 156.019 57.0808C156.52 57.5748 157.203 57.8213 158.069 57.8213C158.774 57.8213 159.436 57.6317 160.054 57.2519L160.129 59.8151C159.288 60.1192 158.28 60.2711 157.104 60.2711C156.325 60.2711 155.617 60.1474 154.98 59.901C154.343 59.6538 153.796 59.306 153.338 58.8564C152.881 58.4069 152.525 57.8658 152.271 57.2331C152.018 56.6004 151.891 55.9036 151.891 55.1443C151.891 54.3469 152.015 53.6313 152.262 52.9983C152.51 52.3656 152.868 51.8244 153.338 51.3749C153.808 50.9257 154.383 50.5805 155.064 50.3401C155.744 50.0997 156.511 49.9791 157.364 49.9791C158.18 49.9791 159.071 50.1502 160.036 50.492L159.813 52.9414ZM167.012 52.3147C166.406 52.3147 165.908 52.5653 165.518 53.065C165.129 53.565 164.934 54.2456 164.934 55.1062C164.934 55.9669 165.132 56.6441 165.528 57.1377C165.923 57.6317 166.419 57.8786 167.012 57.8786C167.63 57.8786 168.131 57.6348 168.515 57.1475C168.898 56.6599 169.09 55.9797 169.09 55.1062C169.09 54.2331 168.898 53.5492 168.515 53.0555C168.131 52.5619 167.63 52.3147 167.012 52.3147ZM167.012 49.9791C167.878 49.9791 168.651 50.0963 169.331 50.3307C170.011 50.5647 170.587 50.9035 171.056 51.3462C171.526 51.7898 171.885 52.3305 172.133 52.97C172.38 53.6091 172.504 54.3277 172.504 55.1255C172.504 55.9228 172.38 56.6414 172.133 57.2805C171.885 57.9196 171.526 58.4578 171.056 58.8945C170.587 59.3312 170.011 59.6666 169.331 59.901C168.651 60.135 167.878 60.2522 167.012 60.2522C165.28 60.2522 163.935 59.8027 162.977 58.9039C162.018 58.0052 161.539 56.7458 161.539 55.1255C161.539 54.3277 161.662 53.6091 161.91 52.97C162.157 52.3305 162.516 51.7898 162.986 51.3463C163.456 50.9035 164.028 50.5647 164.702 50.3307C165.376 50.0963 166.146 49.9791 167.012 49.9791Z" fill="#004890"/>
</svg>
