<svg width="16" height="16" viewBox="0 0 16 16" fill="none" xmlns="http://www.w3.org/2000/svg">
<g id="icon">
<path id="Vector" d="M7.33301 13.3333H2.66634C2.31272 13.3333 1.97358 13.1929 1.72353 12.9428C1.47348 12.6928 1.33301 12.3536 1.33301 12V3.33333C1.33301 2.6 1.93301 2 2.66634 2H5.28634C5.50595 2.00114 5.72188 2.0565 5.91494 2.16117C6.10801 2.26585 6.27222 2.41659 6.39301 2.6L6.93967 3.4C7.06046 3.58341 7.22468 3.73415 7.41774 3.83883C7.6108 3.9435 7.82673 3.99886 8.04634 4H13.333C13.6866 4 14.0258 4.14048 14.2758 4.39052C14.5259 4.64057 14.6663 4.97971 14.6663 5.33333V6.33333" stroke="white" stroke-width="1.5" stroke-linecap="round" stroke-linejoin="round"/>
<path id="Vector_2" d="M14.1938 9.13334C13.9666 8.9073 13.6775 8.75371 13.363 8.692C13.0486 8.63029 12.7228 8.66324 12.4271 8.78668C12.2271 8.86668 12.0471 8.98668 11.8938 9.14001L11.6671 9.36668L11.4338 9.14001C11.2073 8.91285 10.9186 8.758 10.6041 8.6951C10.2896 8.6322 9.96348 8.66407 9.6671 8.78668C9.4671 8.86668 9.29377 8.98668 9.14043 9.14001C8.5071 9.76668 8.47377 10.8267 9.27377 11.6333L11.6671 14L14.0671 11.6333C14.8671 10.8267 14.8271 9.76668 14.1938 9.14001V9.13334Z" stroke="white" stroke-width="1.5" stroke-linecap="round" stroke-linejoin="round"/>
</g>
</svg>
