<svg width="16" height="17" viewBox="0 0 16 17" fill="none" xmlns="http://www.w3.org/2000/svg">
<g id="icon" clip-path="url(#clip0_2458_20319)">
<path id="Vector" d="M8.14667 1.34998H7.85333C7.49971 1.34998 7.16057 1.49045 6.91053 1.7405C6.66048 1.99055 6.52 2.32969 6.52 2.68331V2.80331C6.51976 3.03713 6.45804 3.26677 6.34103 3.4692C6.22401 3.67163 6.05583 3.83973 5.85333 3.95664L5.56667 4.12331C5.36398 4.24033 5.13405 4.30194 4.9 4.30194C4.66595 4.30194 4.43603 4.24033 4.23333 4.12331L4.13333 4.06998C3.82738 3.89348 3.46389 3.8456 3.12267 3.93685C2.78145 4.02809 2.49037 4.251 2.31333 4.55664L2.16667 4.80998C1.99018 5.11593 1.9423 5.47942 2.03354 5.82064C2.12478 6.16186 2.34769 6.45294 2.65333 6.62998L2.75333 6.69664C2.95485 6.81298 3.12241 6.98003 3.23937 7.1812C3.35632 7.38236 3.4186 7.61062 3.42 7.84331V8.18331C3.42093 8.41826 3.35977 8.64928 3.2427 8.85298C3.12563 9.05668 2.95681 9.22584 2.75333 9.34331L2.65333 9.40331C2.34769 9.58034 2.12478 9.87142 2.03354 10.2126C1.9423 10.5539 1.99018 10.9174 2.16667 11.2233L2.31333 11.4766C2.49037 11.7823 2.78145 12.0052 3.12267 12.0964C3.46389 12.1877 3.82738 12.1398 4.13333 11.9633L4.23333 11.91C4.43603 11.793 4.66595 11.7313 4.9 11.7313C5.13405 11.7313 5.36398 11.793 5.56667 11.91L5.85333 12.0766C6.05583 12.1936 6.22401 12.3617 6.34103 12.5641C6.45804 12.7665 6.51976 12.9962 6.52 13.23V13.35C6.52 13.7036 6.66048 14.0427 6.91053 14.2928C7.16057 14.5428 7.49971 14.6833 7.85333 14.6833H8.14667C8.50029 14.6833 8.83943 14.5428 9.08948 14.2928C9.33953 14.0427 9.48 13.7036 9.48 13.35V13.23C9.48024 12.9962 9.54196 12.7665 9.65898 12.5641C9.77599 12.3617 9.94418 12.1936 10.1467 12.0766L10.4333 11.91C10.636 11.793 10.866 11.7313 11.1 11.7313C11.3341 11.7313 11.564 11.793 11.7667 11.91L11.8667 11.9633C12.1726 12.1398 12.5361 12.1877 12.8773 12.0964C13.2186 12.0052 13.5096 11.7823 13.6867 11.4766L13.8333 11.2166C14.0098 10.9107 14.0577 10.5472 13.9665 10.206C13.8752 9.86475 13.6523 9.57368 13.3467 9.39664L13.2467 9.34331C13.0432 9.22584 12.8744 9.05668 12.7573 8.85298C12.6402 8.64928 12.5791 8.41826 12.58 8.18331V7.84998C12.5791 7.61503 12.6402 7.38401 12.7573 7.1803C12.8744 6.9766 13.0432 6.80745 13.2467 6.68998L13.3467 6.62998C13.6523 6.45294 13.8752 6.16186 13.9665 5.82064C14.0577 5.47942 14.0098 5.11593 13.8333 4.80998L13.6867 4.55664C13.5096 4.251 13.2186 4.02809 12.8773 3.93685C12.5361 3.8456 12.1726 3.89348 11.8667 4.06998L11.7667 4.12331C11.564 4.24033 11.3341 4.30194 11.1 4.30194C10.866 4.30194 10.636 4.24033 10.4333 4.12331L10.1467 3.95664C9.94418 3.83973 9.77599 3.67163 9.65898 3.4692C9.54196 3.26677 9.48024 3.03713 9.48 2.80331V2.68331C9.48 2.32969 9.33953 1.99055 9.08948 1.7405C8.83943 1.49045 8.50029 1.34998 8.14667 1.34998Z" stroke="white" stroke-width="1.33333" stroke-linecap="round" stroke-linejoin="round"/>
<path id="Vector_2" d="M8 10.0166C9.10457 10.0166 10 9.12117 10 8.0166C10 6.91203 9.10457 6.0166 8 6.0166C6.89543 6.0166 6 6.91203 6 8.0166C6 9.12117 6.89543 10.0166 8 10.0166Z" stroke="white" stroke-width="1.33333" stroke-linecap="round" stroke-linejoin="round"/>
</g>
<defs>
<clipPath id="clip0_2458_20319">
<rect width="16" height="16" fill="white" transform="translate(0 0.0166016)"/>
</clipPath>
</defs>
</svg>
