<svg width="16" height="17" viewBox="0 0 16 17" fill="none" xmlns="http://www.w3.org/2000/svg">
<g id="icon">
<path id="Vector" d="M10.6663 14.0166V12.6833C10.6663 11.976 10.3854 11.2977 9.88529 10.7977C9.3852 10.2976 8.70692 10.0166 7.99967 10.0166H3.99967C3.29243 10.0166 2.61415 10.2976 2.11406 10.7977C1.61396 11.2977 1.33301 11.976 1.33301 12.6833V14.0166" stroke="white" stroke-width="1.33" stroke-linecap="round" stroke-linejoin="round"/>
<path id="Vector_2" d="M5.99967 7.34994C7.47243 7.34994 8.66634 6.15603 8.66634 4.68327C8.66634 3.21051 7.47243 2.0166 5.99967 2.0166C4.52692 2.0166 3.33301 3.21051 3.33301 4.68327C3.33301 6.15603 4.52692 7.34994 5.99967 7.34994Z" stroke="white" stroke-width="1.33" stroke-linecap="round" stroke-linejoin="round"/>
<path id="Vector_3" d="M14.666 14.0166V12.6833C14.6656 12.0924 14.4689 11.5185 14.1069 11.0515C13.7449 10.5845 13.2381 10.251 12.666 10.1033" stroke="white" stroke-width="1.33" stroke-linecap="round" stroke-linejoin="round"/>
<path id="Vector_4" d="M10.666 2.10315C11.2396 2.25002 11.748 2.58362 12.1111 3.05136C12.4742 3.5191 12.6712 4.09437 12.6712 4.68648C12.6712 5.2786 12.4742 5.85387 12.1111 6.32161C11.748 6.78935 11.2396 7.12295 10.666 7.26982" stroke="white" stroke-width="1.33" stroke-linecap="round" stroke-linejoin="round"/>
</g>
</svg>
