<svg width="16" height="17" viewBox="0 0 16 17" fill="none" xmlns="http://www.w3.org/2000/svg">
<g id="icon" clip-path="url(#clip0_2458_20295)">
<path id="Vector" d="M12.6667 2.68323H3.33333C2.59695 2.68323 2 3.28018 2 4.01656V13.3499C2 14.0863 2.59695 14.6832 3.33333 14.6832H12.6667C13.403 14.6832 14 14.0863 14 13.3499V4.01656C14 3.28018 13.403 2.68323 12.6667 2.68323Z" stroke="white" stroke-width="1.33333" stroke-linecap="round" stroke-linejoin="round"/>
<path id="Vector_2" d="M10.667 1.34998V4.01664" stroke="white" stroke-width="1.33333" stroke-linecap="round" stroke-linejoin="round"/>
<path id="Vector_3" d="M5.33301 1.34998V4.01664" stroke="white" stroke-width="1.33333" stroke-linecap="round" stroke-linejoin="round"/>
<path id="Vector_4" d="M2 6.68323H14" stroke="white" stroke-width="1.33333" stroke-linecap="round" stroke-linejoin="round"/>
<path id="Vector_5" d="M5.33301 9.34998H5.33967" stroke="white" stroke-width="1.33333" stroke-linecap="round" stroke-linejoin="round"/>
<path id="Vector_6" d="M8 9.34998H8.00667" stroke="white" stroke-width="1.33333" stroke-linecap="round" stroke-linejoin="round"/>
<path id="Vector_7" d="M10.667 9.34998H10.6737" stroke="white" stroke-width="1.33333" stroke-linecap="round" stroke-linejoin="round"/>
<path id="Vector_8" d="M5.33301 12.0166H5.33967" stroke="white" stroke-width="1.33333" stroke-linecap="round" stroke-linejoin="round"/>
<path id="Vector_9" d="M8 12.0166H8.00667" stroke="white" stroke-width="1.33333" stroke-linecap="round" stroke-linejoin="round"/>
<path id="Vector_10" d="M10.667 12.0166H10.6737" stroke="white" stroke-width="1.33333" stroke-linecap="round" stroke-linejoin="round"/>
</g>
<defs>
<clipPath id="clip0_2458_20295">
<rect width="16" height="16" fill="white" transform="translate(0 0.0166016)"/>
</clipPath>
</defs>
</svg>
