<svg width="16" height="16" viewBox="0 0 16 16" fill="none" xmlns="http://www.w3.org/2000/svg">
<g id="icon">
<path id="Vector" d="M13.3337 13V13.3333C13.3337 13.6869 13.1932 14.0261 12.9431 14.2761C12.6931 14.5262 12.3539 14.6666 12.0003 14.6666H4.00033C3.6467 14.6666 3.30756 14.5262 3.05752 14.2761C2.80747 14.0261 2.66699 13.6869 2.66699 13.3333V2.66665C2.66699 2.31302 2.80747 1.97389 3.05752 1.72384C3.30756 1.47379 3.6467 1.33331 4.00033 1.33331H9.66699L12.0003 3.66665" stroke="white" stroke-width="1.5" stroke-linecap="round" stroke-linejoin="round"/>
<path id="Vector_2" d="M5.33301 12H5.99967" stroke="white" stroke-width="1.5" stroke-linecap="round" stroke-linejoin="round"/>
<path id="Vector_3" d="M12.2803 6.40665C12.4103 6.27664 12.5647 6.17352 12.7345 6.10316C12.9044 6.0328 13.0865 5.99658 13.2703 5.99658C13.4542 5.99658 13.6362 6.0328 13.8061 6.10316C13.976 6.17352 14.1303 6.27664 14.2603 6.40665C14.3903 6.53666 14.4935 6.691 14.5638 6.86087C14.6342 7.03073 14.6704 7.21279 14.6704 7.39665C14.6704 7.58051 14.6342 7.76257 14.5638 7.93244C14.4935 8.1023 14.3903 8.25664 14.2603 8.38665L11.3003 11.3333L8.66699 12L9.32699 9.36665L12.2803 6.40665Z" stroke="white" stroke-width="1.5" stroke-linecap="round" stroke-linejoin="round"/>
</g>
</svg>
