<svg width="16" height="16" viewBox="0 0 16 16" fill="none" xmlns="http://www.w3.org/2000/svg">
<g id="icon" clip-path="url(#clip0_2521_22436)">
<path id="Vector" d="M7.33301 1.33331C6.97939 1.33331 6.64025 1.47379 6.3902 1.72384C6.14015 1.97389 5.99967 2.31302 5.99967 2.66665V5.99998H2.66634C2.31272 5.99998 1.97358 6.14046 1.72353 6.3905C1.47348 6.64055 1.33301 6.97969 1.33301 7.33331V8.66665C1.33301 9.39998 1.93301 9.99998 2.66634 9.99998H5.99967V13.3333C5.99967 14.0666 6.59967 14.6666 7.33301 14.6666H8.66634C9.01996 14.6666 9.3591 14.5262 9.60915 14.2761C9.8592 14.0261 9.99967 13.6869 9.99967 13.3333V9.99998H13.333C13.6866 9.99998 14.0258 9.8595 14.2758 9.60946C14.5259 9.35941 14.6663 9.02027 14.6663 8.66665V7.33331C14.6663 6.97969 14.5259 6.64055 14.2758 6.3905C14.0258 6.14046 13.6866 5.99998 13.333 5.99998H9.99967V2.66665C9.99967 2.31302 9.8592 1.97389 9.60915 1.72384C9.3591 1.47379 9.01996 1.33331 8.66634 1.33331H7.33301Z" stroke="white" stroke-width="1.5" stroke-linecap="round" stroke-linejoin="round"/>
</g>
<defs>
<clipPath id="clip0_2521_22436">
<rect width="16" height="16" fill="white"/>
</clipPath>
</defs>
</svg>
