<svg width="24" height="25" viewBox="0 0 24 25" fill="none" xmlns="http://www.w3.org/2000/svg">
<g id="icon/bell">
<path id="Vector" d="M18 8.0166C18 6.4253 17.3679 4.89918 16.2426 3.77396C15.1174 2.64874 13.5913 2.0166 12 2.0166C10.4087 2.0166 8.88258 2.64874 7.75736 3.77396C6.63214 4.89918 6 6.4253 6 8.0166C6 15.0166 3 17.0166 3 17.0166H21C21 17.0166 18 15.0166 18 8.0166Z" stroke="#3F458E" stroke-width="2" stroke-linecap="round" stroke-linejoin="round"/>
<path id="Vector_2" d="M13.7295 21.0166C13.5537 21.3197 13.3014 21.5713 12.9978 21.7461C12.6941 21.921 12.3499 22.0131 11.9995 22.0131C11.6492 22.0131 11.3049 21.921 11.0013 21.7461C10.6977 21.5713 10.4453 21.3197 10.2695 21.0166" stroke="#3F458E" stroke-width="2" stroke-linecap="round" stroke-linejoin="round"/>
</g>
</svg>
