<svg width="24" height="25" viewBox="0 0 24 25" fill="none" xmlns="http://www.w3.org/2000/svg">
<g id="icon/help-circle">
<path id="Vector" d="M12 22.0166C17.5228 22.0166 22 17.5394 22 12.0166C22 6.49375 17.5228 2.0166 12 2.0166C6.47715 2.0166 2 6.49375 2 12.0166C2 17.5394 6.47715 22.0166 12 22.0166Z" stroke="#3F458E" stroke-width="2" stroke-linecap="round" stroke-linejoin="round"/>
<path id="Vector_2" d="M9.08984 9.01662C9.32495 8.34829 9.789 7.78473 10.3998 7.42575C11.0106 7.06678 11.7287 6.93556 12.427 7.05533C13.1253 7.17511 13.7587 7.53815 14.2149 8.08015C14.6712 8.62215 14.9209 9.30814 14.9198 10.0166C14.9198 12.0166 11.9198 13.0166 11.9198 13.0166" stroke="#3F458E" stroke-width="2" stroke-linecap="round" stroke-linejoin="round"/>
<path id="Vector_3" d="M12 17.0166H12.01" stroke="#3F458E" stroke-width="2" stroke-linecap="round" stroke-linejoin="round"/>
</g>
</svg>
