<svg width="25" height="25" viewBox="0 0 25 25" fill="none" xmlns="http://www.w3.org/2000/svg">
<g id="material-symbols-light:id-card-outline">
<path id="Vector" d="M14.821 12.9786H18.898V11.9786H14.821V12.9786ZM14.821 10.2086H18.898V9.2086H14.821V10.2086ZM6.43599 15.8246H13.052V15.6586C13.052 15.0753 12.7587 14.6236 12.172 14.3036C11.5853 13.9836 10.776 13.8236 9.74399 13.8236C8.71199 13.8236 7.90233 13.9836 7.31499 14.3036C6.72766 14.6236 6.43466 15.0753 6.43599 15.6586V15.8246ZM9.74399 12.2086C10.166 12.2086 10.5213 12.0643 10.81 11.7756C11.0993 11.4863 11.244 11.1306 11.244 10.7086C11.244 10.2866 11.0993 9.93127 10.81 9.6426C10.5207 9.35394 10.1653 9.20927 9.74399 9.2086C9.32266 9.20794 8.96733 9.3526 8.67799 9.6426C8.38866 9.9326 8.24399 10.2879 8.24399 10.7086C8.24399 11.1293 8.38866 11.4849 8.67799 11.7756C8.96733 12.0663 9.32266 12.2106 9.74399 12.2086ZM5.28299 19.5166C4.82233 19.5166 4.43799 19.3626 4.12999 19.0546C3.82199 18.7466 3.66766 18.3619 3.66699 17.9006V7.1326C3.66699 6.67194 3.82133 6.2876 4.12999 5.9796C4.43866 5.6716 4.82266 5.51727 5.28199 5.5166H20.052C20.512 5.5166 20.896 5.67093 21.204 5.9796C21.512 6.28827 21.6663 6.6726 21.667 7.1326V17.9016C21.667 18.3616 21.5127 18.7459 21.204 19.0546C20.8953 19.3633 20.5113 19.5173 20.052 19.5166H5.28299ZM5.28299 18.5166H20.052C20.2053 18.5166 20.3463 18.4526 20.475 18.3246C20.6037 18.1966 20.6677 18.0553 20.667 17.9006V7.1326C20.667 6.9786 20.603 6.83727 20.475 6.7086C20.347 6.57993 20.206 6.51593 20.052 6.5166H5.28199C5.12866 6.5166 4.98766 6.5806 4.85899 6.7086C4.73033 6.8366 4.66633 6.97794 4.66699 7.1326V17.9016C4.66699 18.0549 4.73099 18.1959 4.85899 18.3246C4.98699 18.4533 5.12799 18.5173 5.28199 18.5166" fill="#252846"/>
</g>
</svg>
