<svg width="25" height="25" viewBox="0 0 25 25" fill="none" xmlns="http://www.w3.org/2000/svg">
<g id="material-symbols-light:mail-outline">
<path id="Vector" d="M4.94901 19.5166C4.48834 19.5166 4.10401 19.3626 3.79601 19.0546C3.48801 18.7466 3.33367 18.3619 3.33301 17.9006V7.1326C3.33301 6.67194 3.48734 6.2876 3.79601 5.9796C4.10467 5.6716 4.48867 5.51727 4.94801 5.5166H19.718C20.178 5.5166 20.562 5.67093 20.87 5.9796C21.178 6.28827 21.3323 6.6726 21.333 7.1326V17.9016C21.333 18.3616 21.1787 18.7459 20.87 19.0546C20.5613 19.3633 20.1773 19.5173 19.718 19.5166H4.94901ZM12.333 12.6326L4.33301 7.4016V17.9016C4.33301 18.0809 4.39067 18.2283 4.50601 18.3436C4.62134 18.4589 4.76901 18.5166 4.94901 18.5166H19.718C19.8973 18.5166 20.0447 18.4589 20.16 18.3436C20.2753 18.2283 20.333 18.0806 20.333 17.9006V7.4006L12.333 12.6326ZM12.333 11.5166L20.025 6.5166H4.64101L12.333 11.5166ZM4.33301 7.4016V6.5166V17.9016C4.33301 18.0809 4.39067 18.2283 4.50601 18.3436C4.62134 18.4589 4.76901 18.5166 4.94901 18.5166H4.33301V7.4016Z" fill="#252846"/>
</g>
</svg>
