<svg width="25" height="25" viewBox="0 0 25 25" fill="none" xmlns="http://www.w3.org/2000/svg">
<g id="material-symbols-light:person-outline-rounded">
<path id="Vector" d="M12.667 11.9016C11.8423 11.9016 11.136 11.6076 10.548 11.0196C9.95999 10.4316 9.66633 9.7256 9.66699 8.9016C9.66766 8.0776 9.96133 7.37093 10.548 6.7816C11.1347 6.19227 11.841 5.89927 12.667 5.9026C13.493 5.90594 14.1993 6.19927 14.786 6.7826C15.3727 7.36593 15.6663 8.0726 15.667 8.9026C15.6677 9.7326 15.374 10.4386 14.786 11.0206C14.198 11.6026 13.4917 11.8956 12.667 11.9016ZM5.66699 18.0946V17.4866C5.66699 17.0739 5.78699 16.6879 6.02699 16.3286C6.26766 15.9686 6.59099 15.6893 6.99699 15.4906C7.94099 15.0379 8.88566 14.6986 9.83099 14.4726C10.7757 14.2459 11.721 14.1326 12.667 14.1326C13.613 14.1326 14.5587 14.2459 15.504 14.4726C16.4493 14.6993 17.3933 15.0386 18.336 15.4906C18.7427 15.6893 19.066 15.9686 19.306 16.3286C19.5467 16.6879 19.667 17.0739 19.667 17.4866V18.0946C19.667 18.3879 19.5673 18.6346 19.368 18.8346C19.1687 19.0333 18.922 19.1326 18.628 19.1326H6.70699C6.41299 19.1326 6.16633 19.0329 5.96699 18.8336C5.76766 18.6343 5.66766 18.3886 5.66699 18.0946ZM6.66699 18.1326H18.667V17.4856C18.667 17.2643 18.5953 17.0559 18.452 16.8606C18.3093 16.6659 18.1117 16.5013 17.859 16.3666C17.0363 15.9679 16.1877 15.6626 15.313 15.4506C14.4383 15.2386 13.5563 15.1326 12.667 15.1326C11.7777 15.1326 10.8957 15.2386 10.021 15.4506C9.14633 15.6626 8.29766 15.9679 7.47499 16.3666C7.22166 16.5013 7.02399 16.6659 6.88199 16.8606C6.73866 17.0559 6.66699 17.2646 6.66699 17.4866V18.1326ZM12.667 10.9016C13.217 10.9016 13.688 10.7056 14.08 10.3136C14.472 9.9216 14.6677 9.4506 14.667 8.9006C14.6663 8.3506 14.4707 7.87994 14.08 7.4886C13.6893 7.09727 13.2183 6.90127 12.667 6.9006C12.1157 6.89993 11.645 7.09593 11.255 7.4886C10.865 7.88127 10.669 8.35193 10.667 8.9006C10.665 9.44927 10.861 9.92027 11.255 10.3136C11.649 10.7069 12.1197 10.9026 12.667 10.9006" fill="#252846"/>
</g>
</svg>
