<svg width="25" height="25" viewBox="0 0 25 25" fill="none" xmlns="http://www.w3.org/2000/svg">
<g id="material-symbols-light:phone-enabled-outline">
<path id="Vector" d="M4.33301 5.5866C4.33301 5.2806 4.43301 5.0256 4.63301 4.8216C4.83301 4.6176 5.08301 4.51593 5.38301 4.5166L7.81701 4.5166C8.08501 4.5166 8.32267 4.60127 8.53001 4.7706C8.73734 4.93994 8.87401 5.1606 8.94001 5.4326L9.37201 7.5356C9.40534 7.78227 9.39401 8.00693 9.33801 8.2096C9.28201 8.41227 9.16634 8.5956 8.99101 8.7596L6.81401 10.8976C7.25734 11.6976 7.72867 12.4323 8.22801 13.1016C8.72801 13.7709 9.26801 14.3959 9.84801 14.9766C10.42 15.5393 11.0257 16.0689 11.665 16.5656C12.3043 17.0623 12.9963 17.5156 13.741 17.9256L15.787 15.7326C15.9203 15.5733 16.0913 15.4623 16.3 15.3996C16.5087 15.3369 16.753 15.3286 17.033 15.3746L19.418 15.8706C19.686 15.9426 19.9053 16.0799 20.076 16.2826C20.2473 16.4846 20.333 16.7216 20.333 16.9936L20.333 19.4666C20.333 19.7666 20.231 20.0166 20.027 20.2166C19.823 20.4166 19.5687 20.5166 19.264 20.5166C17.578 20.5166 15.853 20.0946 14.089 19.2506C12.325 18.4066 10.68 17.2246 9.15401 15.7046C7.62801 14.1846 6.44301 12.5399 5.59901 10.7706C4.75501 9.00127 4.33301 7.27293 4.33301 5.5856M14.679 18.3896C15.4317 18.7243 16.1797 18.9889 16.923 19.1836C17.6663 19.3783 18.3797 19.4856 19.063 19.5056C19.1403 19.5056 19.2047 19.4799 19.256 19.4286C19.3073 19.3773 19.333 19.3129 19.333 19.2356L19.333 17.1896C19.333 17.0869 19.3073 17.0036 19.256 16.9396C19.2047 16.8756 19.128 16.8309 19.026 16.8056L16.906 16.3556C16.8293 16.3296 16.746 16.3263 16.656 16.3456C16.566 16.3649 16.4953 16.4066 16.444 16.4706L14.679 18.3896ZM6.35601 9.9396L8.27601 8.0596C8.33934 7.99494 8.38068 7.9336 8.40001 7.8756C8.42001 7.81827 8.41667 7.75127 8.39001 7.6746L8.00601 5.8246C7.98067 5.72194 7.93601 5.64494 7.87201 5.5936C7.80734 5.54227 7.72401 5.5166 7.62201 5.5166L5.61401 5.5166C5.53734 5.5166 5.47334 5.54227 5.42201 5.5936C5.37068 5.64494 5.34501 5.70893 5.34501 5.7856C5.35634 6.3536 5.44401 7.01893 5.60801 7.7816C5.77201 8.54427 6.02134 9.2636 6.35601 9.9396Z" fill="#252846"/>
</g>
</svg>
